<svg width="87.491821" height="120.450165" viewBox="0 0 87.4918 120.45" fill="none" xmlns="http://www.w3.org/2000/svg" xmlns:xlink="http://www.w3.org/1999/xlink">
	<desc>
			Created with Pixso.
	</desc>
	<defs/>
	<g opacity="0.700000">
		<path id="Vector 287" d="M50.8816 118.753C56.0386 120.73 61.8217 118.152 63.7985 112.995L85.7952 55.613C87.772 50.4561 85.194 44.673 80.0371 42.6962L69.8369 38.7861L58.6725 34.5064L47.5082 30.2267L37.3905 26.3482L36.6102 26.0491C31.4532 24.0723 25.6702 26.6503 23.6934 31.8072L1.69666 89.1895C-0.280151 94.3464 2.29785 100.129 7.45471 102.106L50.8816 118.753Z" fill="#FFAA4C" fill-opacity="1.000000" fill-rule="evenodd"/>
		<path id="Vector 287" d="M63.7985 112.995C61.8217 118.152 56.0386 120.73 50.8816 118.753L7.45471 102.106C2.29785 100.129 -0.280151 94.3464 1.69666 89.1895L23.6934 31.8072C25.6702 26.6502 31.4532 24.0723 36.6102 26.0491L37.3905 26.3482L47.5082 30.2267L58.6725 34.5064L69.8369 38.7861L80.0371 42.6962C85.194 44.673 87.772 50.4561 85.7952 55.613L63.7985 112.995ZM69.8369 38.7861C71.814 31.5409 73.2025 16.2271 62.9407 12.9336C52.6787 9.64008 48.3766 23.09 47.5082 30.2267M58.6725 34.5064C62.5723 24.5933 68.0717 4.07291 58.8705 1.29584C49.6693 -1.4812 40.7167 16.8403 37.3905 26.3482" stroke="#FFAA4C" stroke-opacity="1.000000" stroke-width="2.000000" stroke-linejoin="round"/>
	</g>
</svg>
