<svg width="65.846069" height="84.312073" viewBox="0 0 65.8461 84.3121" fill="none" xmlns="http://www.w3.org/2000/svg" xmlns:xlink="http://www.w3.org/1999/xlink">
	<desc>
			Created with Pixso.
	</desc>
	<defs/>
	<g opacity="0.700000">
		<path id="Vector 288" d="M36.5106 81.7921C31.814 84.6978 25.651 83.2459 22.7452 78.5492L2.5199 45.8573C-0.385742 41.1606 1.06616 34.9977 5.76282 32.092L10.0258 29.4547L17.3212 24.9412L24.6166 20.4278L31.228 16.3375L31.228 16.3375C34.8795 14.0785 39.6709 15.2072 41.9298 18.8587L63.3262 53.4432C66.2318 58.1399 64.7799 64.3029 60.0833 67.2086L36.5106 81.7921Z" fill="#2FDBBC" fill-opacity="1.000000" fill-rule="evenodd"/>
		<path id="Vector 288" d="M22.7452 78.5492C25.651 83.2459 31.814 84.6978 36.5106 81.7921L60.0833 67.2086C64.7799 64.3029 66.2318 58.1399 63.3262 53.4432L41.9298 18.8587C39.6709 15.2072 34.8795 14.0785 31.228 16.3375L24.6166 20.4278L17.3212 24.9412L10.0258 29.4547L5.76282 32.092C1.06616 34.9977 -0.385742 41.1606 2.5199 45.8573L22.7452 78.5492ZM10.0258 29.4547C7.66077 24.6129 4.62878 14.0051 11.4204 10.3078C18.2119 6.61047 23.0476 15.5139 24.6166 20.4278M17.3212 24.9412C13.2433 18.4768 6.61572 4.75027 12.7289 1.5592C18.842 -1.63187 27.6088 10.0818 31.228 16.3375" stroke="#2FDBBC" stroke-opacity="1.000000" stroke-width="2.000000" stroke-linejoin="round"/>
	</g>
</svg>
