<svg width="89.202637" height="124.665771" viewBox="0 0 89.2026 124.666" fill="none" xmlns="http://www.w3.org/2000/svg" xmlns:xlink="http://www.w3.org/1999/xlink">
	<desc>
			Created with Pixso.
	</desc>
	<defs/>
	<g opacity="0.700000">
		<path id="Vector 285" d="M61.6036 29.6042C65.3685 28.6487 69.1852 30.9661 70.0741 34.7472L84.4294 95.8081C85.1801 99.0008 83.5952 102.283 80.6282 103.681L49.521 118.338C48.3358 118.896 47.0167 119.108 45.7163 118.949L30.6012 117.098C27.6897 116.742 25.3159 114.595 24.6698 111.734L10.6212 49.5201C9.79199 45.8479 12.0391 42.1835 15.688 41.2574L20.7383 39.9757L32.3453 37.0299L42.3402 34.4932L52.3352 31.9565L61.6036 29.6042Z" fill="#A64CED" fill-opacity="1.000000" fill-rule="evenodd"/>
		<path id="Vector 285" d="M84.4294 95.8081C85.1801 99.0008 83.5952 102.283 80.6282 103.681L49.521 118.338C48.3358 118.896 47.0167 119.108 45.7163 118.949L30.6012 117.098C27.6897 116.742 25.3159 114.595 24.6698 111.734L10.6212 49.5201C9.79199 45.8479 12.0391 42.1835 15.688 41.2574L20.7383 39.9757L32.3453 37.0299L42.3402 34.4932L52.3352 31.9565L61.6036 29.6042C65.3684 28.6487 69.1852 30.9661 70.0741 34.7472L84.4294 95.8081ZM32.3453 37.0299C30.8678 31.2084 29.8474 19.0746 37.5854 17.1107C45.3235 15.1468 50.6428 26.1896 52.3352 31.9565M42.3402 34.4932C39.5829 25.4805 31.8977 7.98676 23.2156 10.1129C14.5334 12.2391 17.9464 30.9073 20.7383 39.9757" stroke="#A64CED" stroke-opacity="1.000000" stroke-width="1.389222" stroke-linejoin="round"/>
		<path id="Vector 291" d="M38.8529 83.4943L31.1469 55.8051M46.559 111.184L42.7059 97.3389" stroke="#FFFFFF" stroke-opacity="1.000000" stroke-width="1.389222" stroke-linejoin="round"/>
	</g>
</svg>
