<svg width="343.000000" height="193.000000" viewBox="0 0 343 193" fill="none" xmlns="http://www.w3.org/2000/svg" xmlns:xlink="http://www.w3.org/1999/xlink">
	<desc>
			Created with Pixso.
	</desc>
	<defs>
		<clipPath id="clip1_8940">
			<rect id="Frame 1321314853" rx="14.509378" width="92.860039" height="76.899719" transform="translate(57.186035 105.723633) rotate(-31.844263)" fill="white" fill-opacity="0"/>
		</clipPath>
		<clipPath id="clip1_8950">
			<rect id="Frame 1321314854" rx="8.705627" width="17.411255" height="17.411255" transform="translate(46.085938 87.851562) rotate(-31.844263)" fill="white" fill-opacity="0"/>
		</clipPath>
		<clipPath id="clip1_8955">
			<rect id="Frame 1321314857" rx="8.705627" width="17.411255" height="17.411255" transform="translate(118.811401 204.944092) rotate(-31.844263)" fill="white" fill-opacity="0"/>
		</clipPath>
		<clipPath id="clip1_8965">
			<rect id="Frame 1321314855" rx="14.509378" width="92.860039" height="76.899719" transform="translate(129.911621 222.815918) rotate(-31.844263)" fill="white" fill-opacity="0"/>
		</clipPath>
		<clipPath id="clip1_8939">
			<rect id="1" rx="18.136724" width="107.369408" height="222.718979" transform="translate(24.994995 67.644531) rotate(-31.844263)" fill="white" fill-opacity="0"/>
		</clipPath>
		<clipPath id="clip28_764">
			<rect id="tabler-icon-star-filled" rx="-0.180070" width="24.849630" height="24.849630" transform="translate(178.180069 36.279434)" fill="white" fill-opacity="0"/>
		</clipPath>
		<clipPath id="clip1_8986">
			<rect id="3 icon" width="25.209770" height="25.209770" transform="translate(178.000000 36.099365)" fill="white" fill-opacity="0"/>
		</clipPath>
		<clipPath id="clip28_768">
			<rect id="tabler-icon-star-filled" rx="-0.115429" width="15.929252" height="15.929252" transform="translate(199.446487 18.115429)" fill="white" fill-opacity="0"/>
		</clipPath>
		<clipPath id="clip1_8987">
			<rect id="3 icon" width="16.160110" height="16.160110" transform="translate(199.331055 18.000000)" fill="white" fill-opacity="0"/>
		</clipPath>
		<clipPath id="clip1_8935">
			<rect id="Frame 1321314901" width="343.000000" height="193.000000" fill="white" fill-opacity="0"/>
		</clipPath>
	</defs>
	<g clip-path="url(#clip1_8935)">
		<g opacity="0.700000">
			<path id="Vector 317" d="M-20.578 69.5859C-34.8905 27.9286 21.2838 7.33197 30.9674 49.7026C40.651 92.0732 0.710815 140.883 -24.4457 134.852C-44.5709 130.027 -39.7944 116.496 -34.8905 110.333C0.734985 107.555 7.698 160.182 -3.5 182.247C-13.7585 202.461 -44.5135 179.962 -30.085 165.406C-15.6564 150.851 33.3848 153.96 37.5312 185.945C41.6779 217.93 21.3569 240.259 9.01099 236.851C-10.0585 231.587 5.57214 198.663 55.5288 192.4C107.01 185.945 164.797 207.741 168.317 249.981" stroke="#A64CED" stroke-opacity="1.000000" stroke-width="38.287292"/>
		</g>
		<g opacity="0.700000">
			<rect id="Rectangle 150" x="20.000000" y="66.477051" rx="21.764071" width="114.624092" height="229.973679" transform="rotate(-31.8443 20.000000 66.477051)" fill="#000000" fill-opacity="1.000000"/>
		</g>
		<rect id="1" rx="18.136724" width="107.369408" height="222.718979" transform="translate(24.994995 67.644531) rotate(-31.844263)" fill="#FFFFFF" fill-opacity="1.000000"/>
		<g clip-path="url(#clip1_8939)">
			<rect id="Frame 1321314853" rx="14.509378" width="92.860039" height="76.899719" transform="translate(57.186035 105.723633) rotate(-31.844263)" fill="#F9F9F9" fill-opacity="1.000000"/>
			<g clip-path="url(#clip1_8940)">
				<g opacity="0.700000">
					<path id="Vector 284" d="M91.4209 155.343L103.746 147.688" stroke="#2FDBBC" stroke-opacity="1.000000" stroke-width="87.056282" stroke-linecap="round"/>
				</g>
				<circle id="Ellipse 1024" r="1.813673" transform="matrix(0.991867 0.991867 0.127278 -0.127278 87.0098 139.562)" fill="#000000" fill-opacity="1.000000"/>
				<circle id="Ellipse 1025" r="1.813673" transform="matrix(0.991867 0.991867 0.127278 -0.127278 101.751 134.744)" fill="#000000" fill-opacity="1.000000"/>
				<path id="Vector 298" d="M99.8357 152.759C101.876 153.049 105.352 150.961 101.823 148.029C107.061 144.775 100.11 141.834 97.3424 145.202" stroke="#000000" stroke-opacity="1.000000" stroke-width="1.450938" stroke-linejoin="round" stroke-linecap="round"/>
				<path id="Vector 299" d="M141.078 127.825C141.828 124.807 142.784 118.601 138.753 118.316C136.031 118.123 136.029 124.55 136.318 128.411C136.029 124.55 135.642 119.139 132.269 119.744C128.053 120.501 131.195 129.436 132.674 134.425C134.153 139.414 139.967 162.358 128.259 154.481M139.124 129.553C140.73 127.761 145.002 124.752 147.421 127.587C148.751 129.145 148.259 130.699 147.233 131.946C146.393 132.969 145.195 133.786 144.347 134.231M140.048 137.666C142.327 136.689 143.731 135.415 144.347 134.231C145.743 131.548 143.092 129.323 137.394 132.039M147.233 131.946C151.026 139.748 153.773 152.345 151.255 160.492C148.736 168.639 141.458 172.935 139.297 173.411" stroke="#000000" stroke-opacity="1.000000" stroke-width="1.450938" stroke-linejoin="round"/>
				<circle id="Ellipse 1028" r="3.627345" transform="matrix(0.849485 0.849485 0.527612 -0.527612 131.406 101.472)" stroke="#000000" stroke-opacity="1.000000" stroke-width="1.450938"/>
				<circle id="Ellipse 1029" r="3.627345" transform="matrix(0.849485 0.849485 0.527612 -0.527612 149.914 83.1452)" stroke="#000000" stroke-opacity="1.000000" stroke-width="1.450938"/>
				<path id="Vector 300" d="M134.222 98.4424L146.907 85.8665M129.301 98.0826L120.815 80.2948" stroke="#000000" stroke-opacity="1.000000" stroke-width="1.450938" stroke-linejoin="round"/>
				<path id="Vector 301" d="M115.162 80.8174L126.511 78.4654" stroke="#000000" stroke-opacity="1.000000" stroke-width="1.450938" stroke-linejoin="round" stroke-linecap="round"/>
			</g>
			<rect id="Frame 1321314854" rx="8.705627" width="17.411255" height="17.411255" transform="translate(46.085938 87.851562) rotate(-31.844263)" fill="#DAFAF4" fill-opacity="1.000000"/>
			<g clip-path="url(#clip1_8950)">
				<g opacity="0.700000">
					<rect id="Rectangle 153" x="50.679077" y="95.247070" rx="6.529220" width="17.411255" height="13.058440" transform="rotate(-31.8443 50.679077 95.247070)" fill="#2FDBBC" fill-opacity="1.000000"/>
				</g>
				<circle id="Ellipse 1026" r="0.362735" transform="matrix(0.849485 0.849485 0.527612 -0.527612 59.0217 95.6165)" fill="#000000" fill-opacity="1.000000"/>
				<circle id="Ellipse 1027" r="0.362735" transform="matrix(0.849485 0.849485 0.527612 -0.527612 62.1031 93.7027)" fill="#000000" fill-opacity="1.000000"/>
			</g>
			<rect id="Frame 1321314857" rx="8.705627" width="17.411255" height="17.411255" transform="translate(118.811401 204.944092) rotate(-31.844263)" fill="#FFF5EB" fill-opacity="1.000000"/>
			<g clip-path="url(#clip1_8955)">
				<g opacity="0.700000">
					<rect id="Rectangle 153" x="123.404419" y="212.339355" rx="6.529220" width="17.411255" height="13.058440" transform="rotate(-31.8443 123.404419 212.339355)" fill="#FDC280" fill-opacity="1.000000"/>
				</g>
				<circle id="Ellipse 1026" r="0.362735" transform="matrix(0.849485 0.849485 0.527612 -0.527612 131.747 212.709)" fill="#000000" fill-opacity="1.000000"/>
				<circle id="Ellipse 1027" r="0.362735" transform="matrix(0.849485 0.849485 0.527612 -0.527612 134.829 210.795)" fill="#000000" fill-opacity="1.000000"/>
				<circle id="Ellipse 1037" r="0.943110" transform="matrix(0.849485 0.849485 0.527612 -0.527612 131.747 212.709)" stroke="#000000" stroke-opacity="1.000000" stroke-width="0.290188"/>
				<circle id="Ellipse 1038" r="0.943110" transform="matrix(0.849485 0.849485 0.527612 -0.527612 134.828 210.795)" stroke="#000000" stroke-opacity="1.000000" stroke-width="0.290188"/>
				<path id="Vector 311" d="M132.671 212.135L133.904 211.369" stroke="#000000" stroke-opacity="1.000000" stroke-width="0.290188" stroke-linejoin="round" stroke-linecap="round"/>
			</g>
			<path id="Bubi" d="M75.5372 75.5136L78.8173 80.7947L79.4835 80.3809L79.1857 79.9013Q79.2937 79.9433 79.4055 79.9686Q79.6388 80.0214 79.8885 80.0017Q79.9219 79.9991 79.955 79.9951Q80.3444 79.9487 80.7121 79.7204Q81.0403 79.5165 81.2558 79.2284Q81.3569 79.0933 81.4332 78.9397Q81.5299 78.7451 81.5815 78.5391Q81.6574 78.2359 81.6357 77.9082Q81.6318 77.8475 81.6244 77.7871Q81.5645 77.2981 81.278 76.8369Q80.9935 76.3788 80.5846 76.1103Q80.5325 76.0761 80.4784 76.045Q80.1942 75.8795 79.8884 75.8114Q79.6796 75.765 79.4607 75.7639Q79.2741 75.7623 79.0945 75.797Q78.7536 75.8628 78.4379 76.0588Q78.1119 76.2613 77.9068 76.5498Q77.8655 76.608 77.829 76.6697Q77.6971 76.8908 77.6394 77.1299Q77.6131 77.239 77.6022 77.3518L76.2034 75.0998L75.5372 75.5136ZM67.3251 80.8193L70.5132 85.9523L72.4956 84.721Q73.0355 84.3857 73.2863 83.9597Q73.5011 83.5934 73.5301 83.213Q73.535 83.1479 73.5345 83.0825Q73.5338 82.9445 73.5097 82.8108Q73.4549 82.507 73.2797 82.2249Q73.076 81.897 72.7831 81.7061Q72.6405 81.6132 72.4768 81.5527Q72.4487 81.5421 72.4203 81.5325Q72.0558 81.41 71.6361 81.4519Q71.7881 81.1532 71.8099 80.8535Q71.8196 80.7194 71.8037 80.5885Q71.766 80.2793 71.5848 79.9875Q71.4527 79.7748 71.2702 79.6222Q71.1491 79.521 71.006 79.4463Q70.9552 79.4195 70.9025 79.3971Q70.5848 79.262 70.199 79.287Q69.7499 79.3133 69.2479 79.625L67.3251 80.8193ZM68.397 80.9942L69.3434 82.518L70.5856 81.7465Q70.9271 81.5344 71.0348 81.2375Q71.0439 81.2126 71.0513 81.1871Q71.0681 81.1289 71.075 81.0695Q71.1073 80.7898 70.9176 80.4845Q70.7386 80.1963 70.4866 80.1006Q70.4149 80.0734 70.3374 80.0618Q70.3108 80.0575 70.2842 80.055Q69.959 80.024 69.6103 80.2406L68.397 80.9942ZM69.7202 83.1247L70.8315 84.9139L72.1549 84.0919Q72.515 83.8683 72.6412 83.5516Q72.6707 83.4775 72.6875 83.3984Q72.7292 83.1977 72.6986 83.0087Q72.6653 82.8027 72.5459 82.6106Q72.413 82.3965 72.2222 82.2686Q72.1877 82.2455 72.1514 82.2252Q72.064 82.1751 71.9701 82.1454Q71.8097 82.0947 71.6304 82.1034Q71.347 82.1143 71.0653 82.2892L69.7202 83.1247ZM80.5987 73.7752Q80.7232 73.7688 80.8441 73.6936Q80.9628 73.62 81.0225 73.5133Q81.0555 73.4544 81.0705 73.3854Q81.0864 73.3124 81.0807 73.2412Q81.071 73.1203 80.9991 73.0045Q80.9337 72.8992 80.8394 72.8396Q80.7736 72.7981 80.6937 72.7788Q80.6221 72.7603 80.5517 72.7643Q80.4319 72.7712 80.316 72.8433Q80.1977 72.9167 80.1373 73.023Q80.1027 73.0839 80.0871 73.1555Q80.0704 73.2324 80.0777 73.3069Q80.0889 73.4203 80.1559 73.5281Q80.2296 73.6468 80.3362 73.7097Q80.3951 73.7445 80.4639 73.7622Q80.5318 73.7786 80.5987 73.7752ZM75.6904 82.637Q76.0902 82.591 76.4682 82.3562Q76.8977 82.0895 77.1126 81.7033Q77.12 81.6901 77.1271 81.6768Q77.2208 81.4989 77.2688 81.3093Q77.3302 81.0671 77.3167 80.8059Q77.2935 80.3375 77.0087 79.8789L75.7404 77.8369L75.076 78.2495L76.3263 80.2626Q76.5869 80.6823 76.5336 81.0573Q76.5316 81.0711 76.5292 81.0849Q76.5114 81.1854 76.4714 81.2764Q76.3585 81.5337 76.069 81.7135Q75.809 81.875 75.5474 81.8848Q75.4548 81.8873 75.3661 81.87Q75.2047 81.8387 75.056 81.7422Q74.8255 81.5926 74.6472 81.3055L73.3968 79.2924L72.7306 79.7062L73.9989 81.7482Q74.2837 82.2068 74.6915 82.4364Q74.9007 82.5525 75.1248 82.6048Q75.3383 82.6547 75.5653 82.6468Q75.6281 82.6442 75.6904 82.637ZM80.9464 74.6034L83.1286 78.1169L83.7948 77.7031L81.6126 74.1896L80.9464 74.6034ZM80.6584 78.7168Q80.5037 78.9791 80.2117 79.1605Q79.9602 79.3167 79.6921 79.3544Q79.6137 79.3654 79.5339 79.3663Q79.3734 79.3676 79.2226 79.3299Q79.0437 79.2851 78.8786 79.1853Q78.5732 78.9997 78.3567 78.6513Q78.1369 78.2974 78.1084 77.9373Q78.0886 77.6954 78.1521 77.4778Q78.1836 77.3698 78.2356 77.2679Q78.2514 77.2371 78.2689 77.2074Q78.4272 76.9387 78.7264 76.7529Q79.0009 76.5824 79.2898 76.5529Q79.3429 76.5475 79.3965 76.5468Q79.5011 76.5452 79.6031 76.5607Q79.8395 76.5965 80.062 76.724Q80.0821 76.7354 80.1018 76.7475Q80.393 76.9266 80.5947 77.2513Q80.8156 77.607 80.8357 77.9698Q80.8477 78.1977 80.7898 78.4062Q80.756 78.5279 80.6984 78.643Q80.6797 78.6807 80.6584 78.7168Z" fill="#B9B9B9" fill-opacity="1.000000" fill-rule="evenodd"/>
			<path id="Feed" d="M55.6107 67.0257L56.425 66.52L53.118 61.1956L52.3037 61.7013L53.6498 63.8687Q53.6042 63.8546 53.5578 63.8434Q53.3374 63.7903 53.1012 63.8031Q53.089 63.8037 53.0768 63.8045Q52.6676 63.8321 52.2732 64.0772Q51.9683 64.2665 51.7624 64.5325Q51.644 64.6855 51.5583 64.8639Q51.4716 65.0446 51.4216 65.2349Q51.3365 65.5592 51.3583 65.9114Q51.3613 65.9626 51.3669 66.0134Q51.4216 66.5169 51.7179 66.994Q51.9903 67.4326 52.3802 67.6996Q52.451 67.7481 52.5256 67.7909Q52.8315 67.9656 53.1592 68.0312Q53.3508 68.0695 53.5499 68.0705Q53.738 68.0714 53.9189 68.0357Q54.2569 67.9691 54.5697 67.7748Q54.9553 67.5354 55.1642 67.1893Q55.1754 67.1707 55.1861 67.1518Q55.3192 66.9158 55.3656 66.6639Q55.368 66.6511 55.3701 66.6383L55.6107 67.0257ZM37.9822 70.8015L41.1972 75.9779L42.0476 75.4497L40.6694 73.2308L43.0364 71.7606L42.5542 70.9843L40.1872 72.4544L39.3147 71.0497L41.8081 69.5011L41.3259 68.7247L37.9822 70.8015ZM45.9295 72.9163Q46.3962 72.8514 46.8341 72.5794Q47.1417 72.3883 47.3706 72.1281Q47.4507 72.037 47.5212 71.9375Q47.6641 71.7364 47.7519 71.5136Q47.8323 71.3097 47.8665 71.0875L47.022 70.8839Q47.0028 71.001 46.9626 71.1102Q46.9042 71.2689 46.8015 71.4112Q46.628 71.6515 46.3536 71.822Q46.0398 72.0169 45.7161 72.0349Q45.712 72.0351 45.708 72.0353Q45.5605 72.0417 45.421 72.0114Q45.2493 71.9742 45.0896 71.8815Q44.9506 71.8003 44.8308 71.6819L47.4792 70.037Q47.4314 69.9116 47.385 69.8128Q47.3405 69.7129 47.2855 69.6244Q46.9843 69.1394 46.5489 68.8775Q46.5256 68.8635 46.5019 68.8501Q46.2297 68.6964 45.9382 68.6349Q45.7301 68.5911 45.5122 68.5941Q45.4384 68.5951 45.3651 68.6021Q44.919 68.6448 44.4941 68.9087Q44.14 69.1286 43.9029 69.4381Q43.7978 69.5752 43.7157 69.7299Q43.5862 69.9751 43.5237 70.2363Q43.458 70.5108 43.4664 70.803Q43.4695 70.9167 43.485 71.0286Q43.547 71.4765 43.808 71.8968Q44.0539 72.2926 44.4038 72.5428Q44.5184 72.6248 44.6441 72.6911Q44.9003 72.8256 45.1729 72.8864Q45.4416 72.9464 45.7262 72.9347Q45.8285 72.9304 45.9295 72.9163ZM44.4195 71.0142Q44.3726 70.869 44.3624 70.7269Q44.3487 70.5348 44.3961 70.3593Q44.4274 70.2436 44.4853 70.1351Q44.6316 69.8591 44.9421 69.6662Q45.2382 69.4823 45.5163 69.4748Q45.6124 69.4715 45.705 69.4879Q45.8793 69.5188 46.0412 69.6191Q46.1794 69.7041 46.3089 69.8407L44.4195 71.0142ZM49.8785 70.4636Q50.3453 70.3986 50.7831 70.1266Q51.0908 69.9356 51.3197 69.6753Q51.3998 69.5842 51.4703 69.4847Q51.6132 69.2836 51.701 69.0608Q51.7814 68.8569 51.8156 68.6347L50.9711 68.4312Q50.9519 68.5482 50.9117 68.6575Q50.8533 68.8161 50.7506 68.9584Q50.5771 69.1988 50.3027 69.3692Q49.9889 69.5641 49.6652 69.5821Q49.6611 69.5824 49.6571 69.5826Q49.5096 69.5889 49.3701 69.5587Q49.1984 69.5214 49.0386 69.4287Q48.8996 69.3475 48.7799 69.2292L51.4283 67.5842Q51.3805 67.4588 51.3341 67.36Q51.2896 67.2601 51.2346 67.1716Q50.9334 66.6866 50.498 66.4247Q50.4747 66.4107 50.451 66.3974Q50.1788 66.2437 49.8873 66.1822Q49.6792 66.1383 49.4613 66.1413Q49.3874 66.1424 49.3142 66.1494Q48.8681 66.192 48.4432 66.4559Q48.0891 66.6758 47.8519 66.9854Q47.7469 67.1225 47.6648 67.2772Q47.5352 67.5223 47.4728 67.7835Q47.4071 68.058 47.4155 68.3502Q47.4186 68.4639 47.4341 68.5759Q47.4961 69.0238 47.7571 69.4441Q48.003 69.8399 48.3529 70.0901Q48.4675 70.172 48.5932 70.2383Q48.8494 70.3728 49.122 70.4336Q49.3907 70.4936 49.6753 70.482Q49.7776 70.4776 49.8785 70.4636ZM48.3685 68.5614Q48.3216 68.4162 48.3115 68.2741Q48.2978 68.0821 48.3452 67.9065Q48.3765 67.7909 48.4344 67.6824Q48.5807 67.4064 48.8912 67.2135Q49.1873 67.0296 49.4654 67.022Q49.5615 67.0188 49.6541 67.0352Q49.8284 67.066 49.9903 67.1663Q50.1285 67.2513 50.258 67.3879L48.3685 68.5614ZM54.6542 66.4858Q54.513 66.7442 54.2256 66.9227Q53.9661 67.0839 53.6952 67.1061Q53.657 67.1092 53.6186 67.1096Q53.5128 67.1106 53.4104 67.0923Q53.2119 67.057 53.0263 66.9495Q52.7468 66.7854 52.5494 66.4676Q52.352 66.1498 52.3288 65.8265Q52.3134 65.6026 52.3752 65.4026Q52.4035 65.3111 52.4479 65.2246Q52.4553 65.21 52.4631 65.1957Q52.6043 64.9373 52.8917 64.7588Q53.1512 64.5976 53.4221 64.5755Q53.4603 64.5723 53.4987 64.572Q53.6083 64.5703 53.7137 64.5902Q53.9065 64.6267 54.0856 64.7354Q54.3634 64.9006 54.5607 65.2184Q54.7581 65.5362 54.7831 65.8584Q54.7997 66.0574 54.7521 66.2396Q54.7228 66.3514 54.6694 66.4569Q54.662 66.4715 54.6542 66.4858Z" fill="#E4E4E4" fill-opacity="1.000000" fill-rule="evenodd"/>
			<rect id="Frame 1321314855" rx="14.509378" width="92.860039" height="76.899719" transform="translate(129.911621 222.815918) rotate(-31.844263)" fill="#F9F9F9" fill-opacity="1.000000"/>
			<g clip-path="url(#clip1_8965)">
				<g opacity="0.700000">
					<path id="Vector 308" d="M243.424 192.452L203.983 216.949" stroke="#FFAA4C" stroke-opacity="1.000000" stroke-width="69.881416" stroke-linecap="round"/>
				</g>
				<path id="Vector 309" d="M200.755 207.949C200.121 209.922 196.61 212.208 194.102 212.041" stroke="#000000" stroke-opacity="1.000000" stroke-width="1.450938" stroke-linejoin="round" stroke-linecap="round"/>
				<circle id="Ellipse 1033" r="1.813673" transform="matrix(0.849485 0.849485 0.527612 -0.527612 182.97 209.93)" fill="#000000" fill-opacity="1.000000"/>
				<circle id="Ellipse 1034" r="1.813673" transform="matrix(0.849485 0.849485 0.527612 -0.527612 196.528 201.51)" fill="#000000" fill-opacity="1.000000"/>
				<circle id="Ellipse 1035" r="5.078283" transform="matrix(0.849485 0.849485 0.527612 -0.527612 184.32 208.665)" stroke="#000000" stroke-opacity="1.000000" stroke-width="1.450938"/>
				<circle id="Ellipse 1036" r="5.078283" transform="matrix(0.849485 0.849485 0.527612 -0.527612 197.878 200.245)" stroke="#000000" stroke-opacity="1.000000" stroke-width="1.450938"/>
				<path id="Vector 310" d="M188.825 206.294L193.755 203.232" stroke="#000000" stroke-opacity="1.000000" stroke-width="1.450938" stroke-linejoin="round" stroke-linecap="round"/>
				<path id="Vector 293" d="M144.927 255.241C144.979 256.843 146.319 258.1 147.921 258.048L165.055 257.497C166.657 257.445 167.914 256.105 167.862 254.503L167.305 237.186C167.253 235.585 165.913 234.328 164.311 234.379L159.93 234.521L155.38 234.667L151.739 234.784L148.099 234.901L147.176 234.931C145.575 234.983 144.318 236.323 144.369 237.925L144.927 255.241ZM148.099 234.901C147.635 231.819 147.545 225.626 150.894 225.519C154.243 225.411 155.28 231.573 155.38 234.667M151.739 234.784C151.271 231.58 151.354 225.103 155.427 224.826C159.5 224.549 160.126 231.174 159.93 234.521" stroke="#000000" stroke-opacity="1.000000" stroke-width="1.450938" stroke-linejoin="round"/>
			</g>
			<path id="Bubu" d="M148.263 192.606L151.543 197.887L152.209 197.473L151.911 196.994Q152.019 197.036 152.131 197.061Q152.364 197.114 152.614 197.094Q152.647 197.091 152.681 197.087Q153.07 197.041 153.438 196.813Q153.766 196.609 153.981 196.321Q154.082 196.186 154.159 196.032Q154.255 195.837 154.307 195.631Q154.383 195.328 154.361 195.001Q154.357 194.94 154.35 194.879Q154.29 194.39 154.003 193.929Q153.719 193.471 153.31 193.203Q153.258 193.168 153.204 193.137Q152.92 192.972 152.614 192.904Q152.405 192.857 152.186 192.856Q152 192.855 151.82 192.889Q151.479 192.955 151.163 193.151Q150.837 193.354 150.632 193.642Q150.591 193.7 150.554 193.762Q150.423 193.983 150.365 194.222Q150.339 194.331 150.328 194.444L148.929 192.192L148.263 192.606ZM140.051 197.912L143.239 203.045L145.221 201.813Q145.761 201.478 146.012 201.052Q146.227 200.686 146.256 200.305Q146.26 200.24 146.26 200.175Q146.259 200.037 146.235 199.903Q146.18 199.599 146.005 199.317Q145.801 198.989 145.509 198.798Q145.366 198.705 145.202 198.645Q145.174 198.634 145.146 198.625Q144.781 198.502 144.362 198.544Q144.514 198.246 144.535 197.946Q144.545 197.812 144.529 197.681Q144.491 197.372 144.31 197.08Q144.178 196.867 143.996 196.715Q143.875 196.613 143.731 196.539Q143.681 196.512 143.628 196.489Q143.31 196.354 142.924 196.379Q142.475 196.406 141.973 196.717L140.051 197.912ZM141.122 198.086L142.069 199.61L143.311 198.839Q143.653 198.627 143.76 198.33Q143.769 198.305 143.777 198.279Q143.794 198.221 143.8 198.162Q143.833 197.882 143.643 197.577Q143.464 197.289 143.212 197.193Q143.14 197.166 143.063 197.154Q143.036 197.15 143.01 197.147Q142.684 197.116 142.336 197.333L141.122 198.086ZM142.446 200.217L143.557 202.006L144.88 201.184Q145.24 200.961 145.367 200.644Q145.396 200.57 145.413 200.491Q145.455 200.29 145.424 200.101Q145.391 199.895 145.271 199.703Q145.138 199.489 144.948 199.361Q144.913 199.338 144.877 199.317Q144.789 199.267 144.696 199.238Q144.535 199.187 144.356 199.196Q144.072 199.207 143.791 199.382L142.446 200.217ZM148.416 199.729Q148.816 199.683 149.194 199.449Q149.623 199.182 149.838 198.796Q149.845 198.782 149.853 198.769Q149.946 198.591 149.994 198.402Q150.056 198.159 150.042 197.898Q150.019 197.43 149.734 196.971L148.466 194.929L147.801 195.342L149.052 197.355Q149.312 197.775 149.259 198.15Q149.257 198.163 149.255 198.177Q149.237 198.278 149.197 198.369Q149.084 198.626 148.794 198.806Q148.534 198.967 148.273 198.977Q148.18 198.98 148.092 198.962Q147.93 198.931 147.781 198.834Q147.551 198.685 147.373 198.398L146.122 196.385L145.456 196.798L146.724 198.84Q147.009 199.299 147.417 199.529Q147.626 199.645 147.85 199.697Q148.064 199.747 148.291 199.739Q148.354 199.736 148.416 199.729ZM156.536 194.686Q156.936 194.64 157.314 194.405Q157.743 194.138 157.958 193.752Q157.965 193.739 157.973 193.726Q158.066 193.548 158.114 193.358Q158.176 193.116 158.162 192.855Q158.139 192.386 157.854 191.928L156.586 189.886L155.921 190.298L157.172 192.312Q157.432 192.731 157.379 193.106Q157.377 193.12 157.375 193.134Q157.357 193.234 157.317 193.325Q157.204 193.583 156.914 193.762Q156.654 193.924 156.393 193.934Q156.3 193.936 156.212 193.919Q156.05 193.888 155.901 193.791Q155.671 193.642 155.493 193.354L154.242 191.341L153.576 191.755L154.844 193.797Q155.129 194.256 155.537 194.485Q155.746 194.601 155.97 194.654Q156.184 194.704 156.411 194.696Q156.474 194.693 156.536 194.686ZM153.384 195.809Q153.229 196.071 152.937 196.253Q152.686 196.409 152.418 196.447Q152.339 196.458 152.259 196.459Q152.099 196.46 151.948 196.422Q151.769 196.377 151.604 196.278Q151.299 196.092 151.082 195.744Q150.862 195.39 150.834 195.03Q150.814 194.788 150.878 194.57Q150.909 194.462 150.961 194.36Q150.977 194.329 150.994 194.3Q151.153 194.031 151.452 193.845Q151.726 193.675 152.015 193.645Q152.068 193.64 152.122 193.639Q152.227 193.637 152.329 193.653Q152.565 193.689 152.787 193.816Q152.808 193.828 152.827 193.84Q153.118 194.019 153.32 194.344Q153.541 194.699 153.561 195.062Q153.573 195.29 153.515 195.499Q153.482 195.62 153.424 195.735Q153.405 195.773 153.384 195.809Z" fill="#B9B9B9" fill-opacity="1.000000" fill-rule="evenodd"/>
			<g opacity="0.700000">
				<rect id="Rectangle 152" x="63.249878" y="54.986816" rx="3.627345" width="29.018761" height="7.254690" transform="rotate(-31.8443 63.249878 54.986816)" fill="#000000" fill-opacity="1.000000"/>
			</g>
			<path id="I bought myself an electric scooter" d="M150.664 149.027L152.469 151.934L153.135 151.52L151.33 148.613L152.446 147.92L152.069 147.313L150.953 148.006L150.628 147.483Q150.44 147.18 150.477 146.908Q150.479 146.886 150.484 146.864Q150.493 146.817 150.51 146.772Q150.594 146.54 150.861 146.375Q151.03 146.27 151.182 146.253Q151.335 146.233 151.497 146.275L151.666 145.577Q151.357 145.491 151.071 145.526Q150.785 145.561 150.482 145.749Q150.083 145.997 149.889 146.353Q149.779 146.555 149.735 146.77Q149.701 146.934 149.706 147.107Q149.718 147.505 149.962 147.897L150.287 148.42L149.422 148.957L149.799 149.564L150.664 149.027ZM105.075 174.051L108.355 179.333L109.022 178.919L108.724 178.439Q108.832 178.481 108.944 178.506Q109.177 178.559 109.427 178.54Q109.46 178.537 109.493 178.533Q109.882 178.487 110.25 178.258Q110.578 178.054 110.794 177.766Q110.895 177.631 110.971 177.478Q111.068 177.283 111.12 177.077Q111.195 176.774 111.174 176.446Q111.17 176.385 111.162 176.325Q111.103 175.836 110.816 175.375Q110.532 174.917 110.123 174.648Q110.071 174.614 110.016 174.583Q109.732 174.417 109.426 174.349Q109.218 174.303 108.999 174.302Q108.812 174.3 108.632 174.335Q108.292 174.401 107.976 174.597Q107.65 174.799 107.445 175.088Q107.403 175.146 107.367 175.208Q107.235 175.429 107.177 175.668Q107.151 175.777 107.14 175.89L105.741 173.638L105.075 174.051ZM121.663 163.749L124.943 169.03L125.609 168.616L124.336 166.567Q124.186 166.325 124.164 166.071Q124.162 166.047 124.161 166.023Q124.156 165.871 124.192 165.731Q124.223 165.609 124.284 165.496Q124.298 165.47 124.313 165.446Q124.445 165.231 124.685 165.082Q124.951 164.917 125.223 164.907Q125.358 164.902 125.495 164.936Q125.631 164.97 125.749 165.035Q125.99 165.169 126.156 165.437L127.429 167.486L128.094 167.073L126.739 164.892Q126.483 164.48 126.113 164.272Q126.11 164.271 126.107 164.269Q125.885 164.146 125.649 164.101Q125.486 164.069 125.316 164.075Q125.283 164.076 125.251 164.078Q124.867 164.106 124.497 164.336Q124.172 164.537 123.976 164.826Q123.931 164.892 123.893 164.963Q123.776 165.179 123.73 165.409Q123.716 165.482 123.708 165.556L122.329 163.335L121.663 163.749ZM147.044 147.985L150.324 153.266L150.99 152.852L147.71 147.571L147.044 147.985ZM101.84 176.266L105.028 181.399L105.723 180.967L102.535 175.834L101.84 176.266ZM127.686 163.298L129.491 166.205L130.157 165.791L128.352 162.885L129.217 162.347L128.84 161.741L127.975 162.278L127.061 160.806L126.395 161.22L127.309 162.692L126.444 163.229L126.821 163.835L127.686 163.298ZM113.484 176.049Q113.911 175.985 114.31 175.736Q114.67 175.513 114.908 175.198Q115.008 175.066 115.087 174.916Q115.224 174.658 115.287 174.383Q115.347 174.121 115.339 173.844Q115.335 173.697 115.311 173.554Q115.24 173.14 115.001 172.755Q114.772 172.386 114.446 172.147Q114.322 172.055 114.183 171.982Q113.944 171.857 113.69 171.797Q113.411 171.73 113.115 171.74Q112.951 171.745 112.793 171.775Q112.4 171.849 112.036 172.075Q111.642 172.32 111.396 172.67Q111.319 172.779 111.257 172.899Q111.121 173.159 111.058 173.435Q111 173.691 111.004 173.962Q111.007 174.107 111.03 174.248Q111.097 174.655 111.332 175.034Q111.571 175.419 111.911 175.666Q112.028 175.751 112.158 175.82Q112.427 175.961 112.713 176.023Q112.964 176.077 113.227 176.071Q113.357 176.068 113.484 176.049ZM121.322 171.011Q121.714 170.953 122.081 170.725Q122.489 170.471 122.706 170.112Q122.835 169.897 122.89 169.664Q122.916 169.554 122.924 169.44L123.215 169.908Q123.418 170.234 123.419 170.561Q123.419 170.715 123.375 170.87Q123.364 170.908 123.35 170.945Q123.195 171.377 122.698 171.686Q122.292 171.938 121.906 171.977Q121.805 171.988 121.705 171.986Q121.42 171.98 121.137 171.876L120.978 172.578Q121.135 172.646 121.298 172.686Q121.632 172.766 121.995 172.725Q122.538 172.665 123.078 172.33Q123.625 171.99 123.909 171.516Q124.11 171.182 124.169 170.823Q124.193 170.673 124.193 170.519Q124.193 170.474 124.19 170.43Q124.165 169.956 123.879 169.495L121.785 166.123L121.12 166.535L121.41 167.003Q121.311 166.964 121.208 166.94Q120.975 166.885 120.725 166.906Q120.305 166.939 119.89 167.197Q119.533 167.419 119.31 167.736Q119.234 167.845 119.173 167.965Q119.073 168.165 119.019 168.377Q118.948 168.662 118.962 168.969Q118.964 169.033 118.971 169.096Q119.022 169.562 119.297 170.005Q119.565 170.436 119.949 170.692Q120.014 170.735 120.082 170.773Q120.377 170.938 120.691 170.998Q120.881 171.033 121.077 171.031Q121.201 171.029 121.322 171.011ZM134.266 160.297L135.585 162.42L136.251 162.006L134.928 159.876Q134.769 159.62 134.771 159.364L134.771 159.361Q134.773 159.229 134.807 159.106Q134.841 158.987 134.905 158.877Q134.92 158.853 134.935 158.83Q135.064 158.636 135.282 158.5Q135.509 158.359 135.747 158.339Q135.881 158.328 136.018 158.356Q136.107 158.373 136.188 158.408Q136.454 158.522 136.641 158.822L137.959 160.946L138.633 160.527L137.232 158.272Q136.974 157.857 136.609 157.676Q136.417 157.579 136.213 157.54Q136.031 157.506 135.84 157.518Q135.812 157.52 135.784 157.522Q135.408 157.559 135.05 157.781Q134.793 157.941 134.615 158.163Q134.537 158.261 134.474 158.371Q134.371 158.549 134.316 158.741Q134.259 158.936 134.252 159.145Q134.251 159.152 134.251 159.159Q134.243 159.155 134.235 159.151Q134.048 159.052 133.85 159.012Q133.669 158.974 133.477 158.986Q133.409 158.989 133.342 158.999Q133.014 159.046 132.707 159.236Q132.394 159.431 132.204 159.709Q132.165 159.766 132.131 159.827Q132.027 160.011 131.979 160.208Q131.959 160.291 131.949 160.377L131.695 159.968L131.029 160.381L133.211 163.895L133.877 163.481L132.554 161.351Q132.395 161.094 132.396 160.839Q132.396 160.837 132.397 160.835Q132.399 160.689 132.44 160.554Q132.472 160.45 132.528 160.354Q132.536 160.34 132.544 160.326Q132.672 160.121 132.901 159.979Q133.146 159.827 133.398 159.813Q133.52 159.806 133.644 159.83Q133.732 159.848 133.814 159.883Q134.08 159.997 134.266 160.297ZM143.758 157.339Q144.069 157.253 144.366 157.069Q144.958 156.701 145.129 156.195Q145.196 155.998 145.19 155.803Q145.182 155.496 144.994 155.193Q144.792 154.868 144.532 154.754Q144.41 154.701 144.283 154.676Q144.136 154.647 143.982 154.655Q143.942 154.657 143.902 154.66Q143.655 154.679 143.413 154.746Q143.133 154.823 142.873 154.891Q142.615 154.959 142.422 154.947Q142.344 154.941 142.28 154.91Q142.184 154.862 142.118 154.755Q142.066 154.671 142.058 154.584Q142.05 154.487 142.098 154.385Q142.186 154.189 142.475 154.01Q142.748 153.841 143.032 153.81Q143.17 153.794 143.305 153.809Q143.445 153.826 143.581 153.876L143.745 153.181Q143.537 153.096 143.323 153.072Q143.137 153.051 142.947 153.077Q142.536 153.132 142.12 153.39Q141.728 153.633 141.529 153.932Q141.377 154.161 141.336 154.408Q141.323 154.483 141.321 154.56Q141.319 154.605 141.322 154.651Q141.337 154.933 141.507 155.207Q141.705 155.524 141.96 155.633Q142.055 155.673 142.153 155.694Q142.321 155.732 142.501 155.718Q142.784 155.695 143.068 155.616Q143.352 155.537 143.61 155.474Q143.869 155.411 144.07 155.434Q144.144 155.441 144.207 155.472Q144.317 155.525 144.394 155.648Q144.447 155.733 144.456 155.823Q144.467 155.935 144.41 156.053Q144.307 156.265 143.996 156.458Q143.685 156.651 143.362 156.694Q143.345 156.696 143.327 156.698Q143.021 156.728 142.701 156.617L142.538 157.314Q142.586 157.33 142.634 157.343Q142.876 157.412 143.136 157.418Q143.179 157.419 143.221 157.418Q143.49 157.413 143.758 157.339ZM147.187 155.115Q147.624 155.045 148.032 154.792Q148.359 154.589 148.595 154.309Q148.659 154.233 148.716 154.152Q148.879 153.92 148.969 153.663Q149.028 153.495 149.055 153.316L148.354 153.146Q148.328 153.319 148.262 153.474Q148.206 153.605 148.122 153.723Q147.938 153.98 147.642 154.163Q147.303 154.374 146.95 154.4Q146.935 154.401 146.92 154.402Q146.742 154.411 146.575 154.372Q146.398 154.33 146.233 154.235Q146.037 154.121 145.874 153.938L148.625 152.229Q148.578 152.106 148.533 152.016Q148.488 151.927 148.442 151.853Q148.153 151.389 147.737 151.131Q147.708 151.113 147.679 151.096Q147.418 150.945 147.138 150.885Q146.932 150.84 146.714 150.844Q146.658 150.845 146.603 150.85Q146.149 150.887 145.715 151.157Q145.331 151.396 145.089 151.735Q145.009 151.848 144.944 151.971Q144.823 152.202 144.761 152.448Q144.691 152.729 144.699 153.029Q144.702 153.147 144.719 153.263Q144.783 153.7 145.037 154.11Q145.301 154.535 145.68 154.789Q145.769 154.849 145.865 154.899Q146.102 155.023 146.354 155.083Q146.636 155.15 146.937 155.139Q147.063 155.134 147.187 155.115ZM145.531 153.383Q145.447 153.171 145.433 152.963Q145.419 152.769 145.463 152.589Q145.499 152.44 145.574 152.3Q145.577 152.295 145.58 152.29Q145.746 151.988 146.082 151.78Q146.407 151.578 146.721 151.573Q146.843 151.571 146.958 151.595Q147.143 151.633 147.314 151.738Q147.505 151.853 147.669 152.055L145.531 153.383ZM117.534 173.532Q117.934 173.486 118.312 173.251Q118.741 172.984 118.956 172.598Q118.964 172.585 118.971 172.572Q119.065 172.394 119.113 172.204Q119.174 171.962 119.161 171.701Q119.137 171.232 118.852 170.774L117.584 168.732L116.92 169.144L118.17 171.157Q118.431 171.577 118.377 171.952Q118.375 171.966 118.373 171.98Q118.355 172.08 118.315 172.171Q118.202 172.428 117.913 172.608Q117.653 172.77 117.391 172.78Q117.299 172.782 117.21 172.765Q117.049 172.733 116.9 172.637Q116.669 172.487 116.491 172.2L115.241 170.187L114.574 170.601L115.843 172.643Q116.128 173.102 116.535 173.331Q116.745 173.447 116.969 173.5Q117.182 173.55 117.409 173.542Q117.472 173.539 117.534 173.532ZM141.105 159.032L141.336 160.887L140.596 161.347L140.361 159.04L136.983 156.683L137.722 156.224L140.286 158.083L139.807 154.929L140.547 154.469L141.105 159.032ZM110.196 177.255Q110.042 177.517 109.75 177.698Q109.498 177.855 109.23 177.892Q109.152 177.903 109.072 177.904Q108.911 177.905 108.761 177.868Q108.582 177.823 108.417 177.723Q108.111 177.538 107.895 177.189Q107.675 176.835 107.646 176.475Q107.627 176.233 107.69 176.016Q107.722 175.908 107.774 175.806Q107.789 175.775 107.807 175.745Q107.965 175.477 108.264 175.291Q108.539 175.12 108.828 175.091Q108.881 175.085 108.935 175.085Q109.039 175.083 109.141 175.099Q109.378 175.134 109.6 175.262Q109.62 175.273 109.64 175.285Q109.931 175.465 110.133 175.789Q110.354 176.145 110.374 176.508Q110.386 176.736 110.328 176.944Q110.294 177.066 110.236 177.181Q110.218 177.219 110.196 177.255ZM122.301 169.532Q122.142 169.817 121.824 170.014Q121.51 170.209 121.183 170.233Q121.165 170.234 121.146 170.235Q120.987 170.241 120.836 170.208Q120.661 170.17 120.497 170.08Q120.482 170.072 120.468 170.063Q120.182 169.895 119.985 169.577Q119.787 169.259 119.766 168.929Q119.765 168.915 119.765 168.901Q119.756 168.705 119.805 168.524Q119.842 168.386 119.912 168.256Q119.917 168.248 119.922 168.239Q120.085 167.949 120.408 167.749Q120.74 167.542 121.073 167.535Q121.218 167.531 121.354 167.561Q121.535 167.6 121.702 167.698Q121.997 167.867 122.208 168.207Q122.42 168.548 122.445 168.885Q122.458 169.055 122.423 169.215Q122.389 169.371 122.309 169.517Q122.305 169.524 122.301 169.532ZM114.346 174.675Q114.187 174.922 113.911 175.094Q113.639 175.262 113.351 175.297Q113.287 175.305 113.223 175.306Q113.07 175.308 112.925 175.277Q112.733 175.235 112.553 175.134Q112.543 175.128 112.533 175.123Q112.23 174.944 112.02 174.607Q111.827 174.296 111.797 173.969Q111.794 173.94 111.793 173.91Q111.782 173.705 111.832 173.515Q111.868 173.372 111.939 173.239Q111.963 173.192 111.992 173.148Q112.154 172.895 112.437 172.719Q112.732 172.536 113.04 172.511Q113.079 172.507 113.118 172.507Q113.252 172.504 113.382 172.527Q113.59 172.565 113.786 172.672Q113.823 172.692 113.859 172.715Q114.127 172.883 114.313 173.183Q114.523 173.52 114.548 173.871Q114.549 173.882 114.55 173.894Q114.56 174.093 114.515 174.278Q114.479 174.429 114.405 174.572Q114.378 174.625 114.346 174.675ZM121.292 176.929L124.572 182.21L125.238 181.796L121.958 176.515L121.292 176.929ZM136.913 168.631Q137.038 168.625 137.159 168.55Q137.278 168.476 137.337 168.369Q137.37 168.31 137.385 168.241Q137.401 168.168 137.396 168.097Q137.386 167.976 137.314 167.86Q137.249 167.755 137.154 167.696Q137.088 167.654 137.009 167.635Q136.937 167.616 136.866 167.62Q136.747 167.627 136.631 167.699Q136.513 167.773 136.452 167.879Q136.418 167.94 136.402 168.011Q136.385 168.088 136.393 168.163Q136.404 168.276 136.471 168.384Q136.544 168.503 136.651 168.566Q136.71 168.6 136.779 168.618Q136.847 168.635 136.913 168.631ZM132.484 173.267L134.289 176.174L134.955 175.76L133.15 172.854L134.015 172.316L133.638 171.71L132.773 172.247L131.859 170.775L131.193 171.189L132.107 172.661L131.242 173.198L131.619 173.805L132.484 173.267ZM159.95 156.208L161.755 159.115L162.421 158.701L160.616 155.794L161.481 155.257L161.104 154.651L160.239 155.188L159.325 153.716L158.659 154.13L159.573 155.602L158.708 156.139L159.085 156.745L159.95 156.208ZM111.59 190.229Q111.935 190.161 112.254 189.963Q112.66 189.711 112.871 189.349Q112.987 189.15 113.041 188.936Q113.071 188.814 113.081 188.688L113.376 189.163L114.049 188.745L111.867 185.231L111.194 185.65L111.492 186.13Q111.376 186.085 111.255 186.058Q111.033 186.01 110.797 186.026Q110.779 186.027 110.761 186.029Q110.361 186.064 109.98 186.301Q109.636 186.514 109.418 186.818Q109.325 186.947 109.255 187.092Q109.164 187.277 109.113 187.472Q109.03 187.788 109.05 188.132Q109.054 188.208 109.064 188.282Q109.125 188.756 109.402 189.202Q109.681 189.651 110.081 189.918Q110.143 189.959 110.207 189.995Q110.493 190.157 110.8 190.222Q111.011 190.267 111.231 190.265Q111.414 190.264 111.59 190.229ZM116.23 184.551L117.503 186.6L118.167 186.187L116.813 184.006Q116.71 183.841 116.576 183.707Q116.416 183.547 116.211 183.432Q116.021 183.325 115.818 183.27Q115.617 183.215 115.403 183.211Q115.303 183.208 115.205 183.22Q114.879 183.258 114.571 183.45Q114.246 183.651 114.05 183.94Q114.005 184.006 113.967 184.077Q113.85 184.293 113.804 184.524Q113.79 184.596 113.782 184.67L113.501 184.217L112.835 184.631L115.017 188.144L115.683 187.73L114.41 185.681Q114.26 185.439 114.238 185.185Q114.236 185.161 114.235 185.137Q114.23 184.986 114.266 184.845Q114.297 184.723 114.358 184.61Q114.372 184.585 114.387 184.56Q114.519 184.345 114.759 184.196Q115.025 184.031 115.297 184.021Q115.432 184.016 115.569 184.05Q115.705 184.084 115.823 184.149Q116.064 184.283 116.23 184.551ZM121.435 184.058Q121.872 183.989 122.28 183.735Q122.607 183.532 122.843 183.252Q122.907 183.177 122.964 183.096Q123.127 182.864 123.217 182.607Q123.276 182.439 123.303 182.26L122.602 182.09Q122.576 182.262 122.51 182.417Q122.454 182.548 122.37 182.667Q122.186 182.923 121.89 183.107Q121.551 183.318 121.198 183.344Q121.183 183.345 121.168 183.346Q120.99 183.354 120.823 183.315Q120.646 183.274 120.481 183.179Q120.285 183.065 120.122 182.882L122.873 181.173Q122.826 181.049 122.781 180.96Q122.736 180.871 122.69 180.797Q122.401 180.332 121.985 180.074Q121.956 180.056 121.927 180.039Q121.666 179.889 121.386 179.828Q121.18 179.784 120.962 179.788Q120.906 179.789 120.851 179.794Q120.397 179.831 119.963 180.101Q119.579 180.339 119.337 180.679Q119.257 180.791 119.192 180.914Q119.071 181.145 119.009 181.392Q118.939 181.672 118.947 181.973Q118.95 182.091 118.967 182.206Q119.031 182.644 119.285 183.054Q119.549 183.479 119.928 183.732Q120.017 183.792 120.113 183.843Q120.35 183.966 120.602 184.026Q120.884 184.094 121.185 184.083Q121.311 184.078 121.435 184.058ZM119.779 182.326Q119.695 182.115 119.681 181.907Q119.667 181.713 119.711 181.532Q119.747 181.383 119.822 181.244Q119.825 181.239 119.828 181.234Q119.994 180.932 120.33 180.723Q120.655 180.522 120.969 180.516Q121.09 180.514 121.206 180.538Q121.391 180.577 121.562 180.681Q121.753 180.796 121.917 180.999L119.779 182.326ZM127.04 180.577Q127.478 180.507 127.886 180.254Q128.213 180.051 128.449 179.771Q128.513 179.695 128.57 179.614Q128.733 179.382 128.823 179.125Q128.881 178.957 128.909 178.778L128.207 178.608Q128.181 178.78 128.115 178.936Q128.059 179.066 127.975 179.185Q127.792 179.441 127.496 179.625Q127.156 179.836 126.803 179.862Q126.788 179.863 126.773 179.864Q126.595 179.872 126.428 179.833Q126.251 179.792 126.087 179.697Q125.89 179.583 125.728 179.4L128.479 177.691Q128.432 177.568 128.387 177.478Q128.341 177.389 128.295 177.315Q128.007 176.851 127.59 176.593Q127.562 176.575 127.532 176.558Q127.272 176.407 126.992 176.347Q126.785 176.302 126.568 176.306Q126.512 176.307 126.456 176.312Q126.003 176.349 125.569 176.619Q125.185 176.857 124.943 177.197Q124.863 177.309 124.798 177.433Q124.676 177.664 124.615 177.91Q124.544 178.191 124.552 178.491Q124.556 178.609 124.573 178.725Q124.636 179.162 124.891 179.572Q125.155 179.997 125.533 180.251Q125.623 180.311 125.719 180.361Q125.956 180.484 126.208 180.545Q126.49 180.612 126.791 180.601Q126.917 180.596 127.04 180.577ZM125.385 178.845Q125.301 178.633 125.287 178.425Q125.273 178.231 125.317 178.051Q125.353 177.902 125.428 177.762Q125.431 177.757 125.434 177.752Q125.6 177.45 125.935 177.242Q126.26 177.04 126.575 177.035Q126.696 177.033 126.812 177.057Q126.997 177.095 127.168 177.2Q127.359 177.315 127.522 177.517L125.385 178.845ZM131.02 178.116Q131.438 178.047 131.828 177.805Q132.159 177.6 132.39 177.314Q132.443 177.249 132.49 177.179Q132.661 176.929 132.748 176.653Q132.792 176.516 132.815 176.372L132.103 176.201Q132.076 176.361 132.013 176.506Q131.96 176.63 131.882 176.743Q131.711 176.987 131.429 177.162Q131.157 177.331 130.869 177.366Q130.805 177.374 130.74 177.375Q130.575 177.377 130.418 177.341Q130.24 177.299 130.073 177.207Q130.071 177.205 130.068 177.204Q129.757 177.029 129.543 176.683Q129.33 176.34 129.311 175.988Q129.311 175.983 129.31 175.979Q129.3 175.773 129.349 175.583Q129.386 175.441 129.456 175.308Q129.481 175.261 129.51 175.216Q129.672 174.964 129.954 174.788Q130.236 174.613 130.531 174.568Q130.682 174.545 130.83 174.558Q130.97 174.57 131.108 174.615L131.276 173.895Q131.037 173.822 130.796 173.809Q130.6 173.799 130.401 173.828Q130.362 173.833 130.324 173.84Q129.924 173.914 129.554 174.144Q129.159 174.389 128.91 174.738Q128.833 174.847 128.769 174.966Q128.631 175.225 128.568 175.5Q128.509 175.757 128.516 176.029Q128.52 176.147 128.536 176.263Q128.6 176.7 128.855 177.11Q129.08 177.474 129.399 177.715Q129.528 177.813 129.672 177.891Q129.919 178.022 130.182 178.085Q130.453 178.15 130.742 178.142Q130.882 178.138 131.02 178.116ZM135.892 172.401L137.137 174.405L136.471 174.819L134.288 171.306L134.955 170.892L135.209 171.302Q135.211 171.242 135.217 171.182Q135.237 170.99 135.312 170.822Q135.467 170.471 135.862 170.226Q136.129 170.06 136.401 170.021Q136.673 169.98 136.992 170.079L136.834 170.8Q136.651 170.751 136.486 170.784Q136.32 170.814 136.143 170.924Q135.895 171.078 135.773 171.301Q135.713 171.411 135.683 171.538Q135.594 171.921 135.892 172.401ZM141.936 171.336Q142.354 171.268 142.744 171.026Q143.074 170.82 143.305 170.534Q143.358 170.469 143.406 170.399Q143.576 170.149 143.664 169.873Q143.707 169.736 143.73 169.592L143.018 169.421Q142.991 169.581 142.929 169.727Q142.876 169.851 142.797 169.964Q142.626 170.208 142.345 170.383Q142.073 170.552 141.785 170.586Q141.721 170.594 141.656 170.595Q141.49 170.598 141.334 170.561Q141.155 170.519 140.988 170.427Q140.986 170.426 140.984 170.424Q140.673 170.249 140.458 169.903Q140.245 169.561 140.226 169.208Q140.226 169.204 140.226 169.199Q140.216 168.994 140.265 168.804Q140.302 168.662 140.372 168.528Q140.397 168.481 140.425 168.437Q140.587 168.184 140.87 168.009Q141.152 167.834 141.446 167.788Q141.598 167.765 141.746 167.778Q141.886 167.79 142.023 167.835L142.192 167.115Q141.953 167.042 141.711 167.03Q141.515 167.019 141.317 167.048Q141.278 167.054 141.239 167.061Q140.84 167.134 140.47 167.364Q140.075 167.609 139.826 167.959Q139.748 168.068 139.685 168.187Q139.546 168.445 139.483 168.721Q139.424 168.978 139.432 169.25Q139.435 169.368 139.452 169.483Q139.516 169.921 139.77 170.331Q139.996 170.694 140.314 170.935Q140.443 171.033 140.588 171.111Q140.835 171.243 141.098 171.306Q141.369 171.37 141.657 171.363Q141.798 171.359 141.936 171.336ZM146.803 168.397Q147.115 168.311 147.411 168.127Q148.003 167.759 148.174 167.253Q148.241 167.056 148.236 166.861Q148.227 166.553 148.039 166.25Q147.837 165.925 147.577 165.812Q147.456 165.759 147.329 165.733Q147.182 165.704 147.027 165.713Q146.987 165.715 146.947 165.718Q146.701 165.737 146.458 165.804Q146.178 165.88 145.918 165.949Q145.66 166.017 145.467 166.004Q145.39 165.999 145.326 165.967Q145.229 165.92 145.163 165.813Q145.111 165.729 145.104 165.642Q145.096 165.544 145.143 165.442Q145.232 165.247 145.521 165.068Q145.793 164.898 146.077 164.867Q146.215 164.851 146.35 164.867Q146.49 164.883 146.626 164.934L146.79 164.239Q146.583 164.153 146.368 164.129Q146.183 164.109 145.992 164.134Q145.581 164.189 145.166 164.447Q144.774 164.691 144.574 164.99Q144.422 165.219 144.381 165.466Q144.368 165.541 144.366 165.617Q144.364 165.663 144.367 165.708Q144.383 165.991 144.553 166.264Q144.75 166.582 145.005 166.691Q145.1 166.73 145.198 166.752Q145.366 166.789 145.546 166.776Q145.829 166.752 146.113 166.674Q146.397 166.595 146.655 166.532Q146.914 166.469 147.116 166.491Q147.19 166.499 147.253 166.53Q147.363 166.583 147.439 166.706Q147.492 166.791 147.501 166.881Q147.512 166.992 147.455 167.111Q147.352 167.323 147.041 167.516Q146.731 167.709 146.407 167.752Q146.39 167.754 146.373 167.756Q146.066 167.786 145.746 167.675L145.583 168.371Q145.631 168.387 145.679 168.401Q145.921 168.47 146.181 168.475Q146.224 168.476 146.266 168.475Q146.535 168.47 146.803 168.397ZM150.248 166.174Q150.666 166.105 151.056 165.863Q151.387 165.658 151.617 165.372Q151.67 165.306 151.718 165.237Q151.889 164.987 151.976 164.71Q152.02 164.573 152.042 164.43L151.331 164.259Q151.303 164.419 151.241 164.564Q151.188 164.688 151.11 164.801Q150.939 165.045 150.657 165.22Q150.385 165.389 150.097 165.424Q150.033 165.431 149.968 165.433Q149.803 165.435 149.646 165.398Q149.467 165.357 149.301 165.264Q149.298 165.263 149.296 165.262Q148.985 165.086 148.77 164.741Q148.558 164.398 148.539 164.045Q148.538 164.041 148.538 164.036Q148.528 163.831 148.577 163.641Q148.614 163.499 148.684 163.365Q148.709 163.318 148.738 163.274Q148.9 163.021 149.182 162.846Q149.464 162.671 149.759 162.626Q149.91 162.602 150.058 162.615Q150.198 162.628 150.336 162.672L150.504 161.952Q150.265 161.88 150.023 161.867Q149.827 161.856 149.629 161.885Q149.59 161.891 149.551 161.898Q149.152 161.971 148.782 162.201Q148.387 162.447 148.138 162.796Q148.06 162.905 147.997 163.024Q147.858 163.282 147.795 163.558Q147.737 163.815 147.744 164.087Q147.747 164.205 147.764 164.321Q147.828 164.758 148.082 165.168Q148.308 165.531 148.626 165.773Q148.756 165.871 148.9 165.948Q149.147 166.08 149.41 166.143Q149.681 166.208 149.969 166.2Q150.11 166.196 150.248 166.174ZM153.779 163.971Q154.206 163.906 154.606 163.658Q154.965 163.435 155.203 163.12Q155.304 162.987 155.382 162.838Q155.52 162.58 155.582 162.305Q155.642 162.043 155.635 161.766Q155.63 161.619 155.606 161.476Q155.535 161.062 155.296 160.677Q155.067 160.308 154.742 160.068Q154.617 159.977 154.479 159.904Q154.24 159.779 153.985 159.718Q153.707 159.652 153.41 159.662Q153.247 159.667 153.088 159.697Q152.696 159.77 152.332 159.997Q151.937 160.242 151.692 160.591Q151.615 160.701 151.553 160.821Q151.417 161.08 151.354 161.357Q151.295 161.613 151.299 161.884Q151.302 162.028 151.326 162.17Q151.392 162.577 151.628 162.956Q151.867 163.341 152.206 163.587Q152.324 163.673 152.453 163.741Q152.723 163.883 153.009 163.945Q153.259 163.999 153.523 163.993Q153.652 163.99 153.779 163.971ZM157.965 161.371Q158.392 161.306 158.792 161.058Q159.151 160.835 159.389 160.52Q159.489 160.387 159.568 160.238Q159.705 159.98 159.768 159.705Q159.828 159.443 159.82 159.166Q159.816 159.019 159.792 158.876Q159.721 158.462 159.482 158.077Q159.253 157.708 158.928 157.469Q158.803 157.377 158.664 157.304Q158.425 157.179 158.171 157.118Q157.893 157.052 157.596 157.062Q157.432 157.067 157.274 157.097Q156.881 157.171 156.517 157.397Q156.123 157.642 155.877 157.992Q155.801 158.101 155.738 158.221Q155.602 158.481 155.539 158.757Q155.481 159.013 155.485 159.284Q155.488 159.429 155.511 159.57Q155.578 159.977 155.813 160.356Q156.052 160.741 156.392 160.988Q156.51 161.073 156.639 161.142Q156.908 161.283 157.194 161.345Q157.445 161.399 157.709 161.393Q157.838 161.39 157.965 161.371ZM164.653 157.216Q165.09 157.146 165.499 156.893Q165.826 156.69 166.061 156.41Q166.125 156.334 166.182 156.253Q166.346 156.021 166.435 155.764Q166.494 155.596 166.521 155.417L165.82 155.247Q165.794 155.419 165.728 155.575Q165.672 155.705 165.588 155.824Q165.404 156.08 165.108 156.264Q164.769 156.475 164.416 156.501Q164.401 156.502 164.386 156.503Q164.208 156.511 164.041 156.472Q163.864 156.431 163.699 156.336Q163.503 156.222 163.34 156.039L166.091 154.33Q166.045 154.207 165.999 154.117Q165.954 154.028 165.908 153.954Q165.619 153.49 165.203 153.232Q165.174 153.214 165.145 153.197Q164.884 153.046 164.605 152.986Q164.398 152.941 164.18 152.945Q164.124 152.946 164.069 152.951Q163.615 152.988 163.181 153.258Q162.797 153.496 162.555 153.836Q162.475 153.948 162.411 154.072Q162.289 154.303 162.227 154.549Q162.157 154.83 162.165 155.13Q162.168 155.248 162.185 155.364Q162.249 155.801 162.503 156.211Q162.767 156.636 163.146 156.89Q163.235 156.95 163.331 157Q163.568 157.123 163.82 157.184Q164.103 157.251 164.403 157.24Q164.529 157.235 164.653 157.216ZM162.998 155.484Q162.914 155.272 162.899 155.064Q162.886 154.87 162.929 154.69Q162.965 154.541 163.04 154.401Q163.043 154.396 163.046 154.391Q163.212 154.089 163.548 153.881Q163.873 153.679 164.187 153.674Q164.309 153.672 164.424 153.696Q164.609 153.734 164.78 153.839Q164.971 153.954 165.135 154.156L162.998 155.484ZM167.211 152.949L168.456 154.953L167.79 155.367L165.608 151.854L166.274 151.44L166.529 151.85Q166.53 151.789 166.536 151.73Q166.556 151.538 166.631 151.37Q166.787 151.019 167.181 150.774Q167.448 150.608 167.72 150.569Q167.992 150.528 168.311 150.627L168.153 151.348Q167.97 151.299 167.805 151.332Q167.639 151.362 167.462 151.472Q167.214 151.626 167.092 151.849Q167.032 151.959 167.003 152.085Q166.913 152.469 167.211 152.949ZM137.261 169.459L139.443 172.973L140.11 172.559L137.927 169.046L137.261 169.459ZM112.445 188.782Q112.292 189.068 111.974 189.266Q111.702 189.435 111.414 189.47Q111.35 189.478 111.285 189.479Q111.125 189.481 110.973 189.446Q110.789 189.403 110.619 189.304Q110.306 189.123 110.085 188.768Q109.87 188.421 109.847 188.062Q109.833 187.845 109.885 187.644Q109.919 187.512 109.982 187.388Q110.007 187.339 110.036 187.293Q110.194 187.042 110.474 186.867Q110.777 186.679 111.09 186.659Q111.121 186.657 111.151 186.657Q111.295 186.655 111.431 186.685Q111.624 186.729 111.802 186.838Q112.106 187.022 112.33 187.383Q112.583 187.79 112.584 188.198Q112.584 188.316 112.563 188.435Q112.53 188.622 112.445 188.782ZM154.641 162.597Q154.483 162.844 154.207 163.015Q153.935 163.184 153.647 163.219Q153.583 163.227 153.518 163.228Q153.366 163.23 153.22 163.199Q153.028 163.157 152.848 163.056Q152.838 163.05 152.828 163.044Q152.525 162.866 152.316 162.529Q152.122 162.217 152.092 161.891Q152.089 161.861 152.088 161.832Q152.078 161.626 152.127 161.436Q152.164 161.294 152.234 161.161Q152.259 161.114 152.287 161.069Q152.45 160.817 152.732 160.641Q153.027 160.458 153.335 160.432Q153.374 160.429 153.413 160.428Q153.547 160.425 153.677 160.449Q153.885 160.487 154.081 160.594Q154.118 160.614 154.154 160.636Q154.423 160.805 154.609 161.104Q154.818 161.442 154.844 161.792Q154.844 161.804 154.845 161.816Q154.856 162.014 154.811 162.2Q154.774 162.351 154.701 162.493Q154.673 162.547 154.641 162.597ZM158.827 159.997Q158.668 160.244 158.392 160.416Q158.121 160.584 157.833 160.619Q157.769 160.627 157.704 160.628Q157.551 160.63 157.406 160.599Q157.214 160.557 157.034 160.456Q157.024 160.45 157.014 160.445Q156.711 160.266 156.501 159.929Q156.308 159.618 156.278 159.291Q156.275 159.262 156.274 159.232Q156.263 159.027 156.313 158.837Q156.35 158.694 156.42 158.561Q156.445 158.514 156.473 158.469Q156.635 158.217 156.918 158.041Q157.213 157.858 157.521 157.832Q157.56 157.829 157.599 157.829Q157.733 157.826 157.863 157.849Q158.071 157.887 158.267 157.994Q158.304 158.014 158.34 158.037Q158.608 158.205 158.794 158.505Q159.004 158.842 159.029 159.193Q159.03 159.204 159.031 159.216Q159.041 159.415 158.996 159.6Q158.96 159.751 158.886 159.894Q158.859 159.947 158.827 159.997Z" fill="#B9B9B9" fill-opacity="1.000000" fill-rule="evenodd"/>
			<path id="Vector 312" d="M110.47 26.5127L113.532 31.4429" stroke="#E4E4E4" stroke-opacity="1.000000" stroke-width="1.088204" stroke-linejoin="round" stroke-linecap="round"/>
			<path id="Vector 313" d="M109.536 30.509L114.466 27.4469" stroke="#E4E4E4" stroke-opacity="1.000000" stroke-width="1.088203" stroke-linejoin="round" stroke-linecap="round"/>
		</g>
		<g opacity="0.700000">
			<g clip-path="url(#clip1_8986)">
				<g clip-path="url(#clip28_764)">
					<path id="Vector" d="M201.693 48.7042C201.696 49.0273 201.597 49.3432 201.412 49.6079C201.227 49.8726 200.964 50.073 200.659 50.1814L194.367 52.466L192.082 58.7586C191.97 59.0602 191.769 59.3202 191.505 59.5039C191.24 59.6875 190.927 59.7859 190.605 59.7859C190.283 59.7859 189.969 59.6875 189.705 59.5039C189.441 59.3202 189.24 59.0602 189.128 58.7586L186.843 52.466L180.551 50.1814C180.249 50.0695 179.989 49.8679 179.805 49.6039C179.622 49.3398 179.523 49.0259 179.523 48.7042C179.523 48.3826 179.622 48.0687 179.805 47.8046C179.989 47.5406 180.249 47.339 180.551 47.2271L186.843 44.9425L189.128 38.6499C189.24 38.3483 189.441 38.0883 189.705 37.9046C189.969 37.721 190.283 37.6226 190.605 37.6226C190.927 37.6226 191.24 37.721 191.505 37.9046C191.769 38.0883 191.97 38.3483 192.082 38.6499L194.367 44.9425L200.659 47.2271C200.964 47.3355 201.227 47.5359 201.412 47.8006C201.597 48.0653 201.696 48.3811 201.693 48.7042Z" fill="#FFAA4C" fill-opacity="1.000000" fill-rule="nonzero"/>
				</g>
			</g>
		</g>
		<g opacity="0.700000">
			<g clip-path="url(#clip1_8987)">
				<g clip-path="url(#clip28_768)">
					<path id="Vector" d="M214.519 26.08C214.521 26.2871 214.458 26.4895 214.339 26.6592C214.22 26.8289 214.051 26.9574 213.856 27.0268L209.823 28.4913L208.358 32.5251C208.286 32.7184 208.157 32.8851 207.988 33.0028C207.819 33.1205 207.617 33.1836 207.411 33.1836C207.205 33.1836 207.004 33.1205 206.834 33.0028C206.665 32.8851 206.536 32.7184 206.464 32.5251L205 28.4913L200.966 27.0268C200.773 26.9551 200.606 26.8259 200.488 26.6566C200.371 26.4874 200.307 26.2861 200.307 26.08C200.307 25.8738 200.371 25.6725 200.488 25.5033C200.606 25.334 200.773 25.2048 200.966 25.1331L205 23.6686L206.464 19.6349C206.536 19.4416 206.665 19.2749 206.834 19.1571C207.004 19.0394 207.205 18.9763 207.411 18.9763C207.617 18.9763 207.819 19.0394 207.988 19.1571C208.157 19.2749 208.286 19.4416 208.358 19.6349L209.823 23.6686L213.856 25.1331C214.051 25.2026 214.22 25.331 214.339 25.5007C214.458 25.6704 214.521 25.8728 214.519 26.08Z" fill="#FFAA4C" fill-opacity="1.000000" fill-rule="nonzero"/>
				</g>
			</g>
		</g>
	</g>
</svg>
