<svg width="424.701172" height="452.657227" viewBox="0 0 424.701 452.657" fill="none" xmlns="http://www.w3.org/2000/svg" xmlns:xlink="http://www.w3.org/1999/xlink">
	<desc>
			Created with Pixso.
	</desc>
	<defs>
		<clipPath id="clip1_8352">
			<rect id="Frame 1321314853" rx="21.416344" width="137.064621" height="113.506645" transform="translate(160.121094 198.304474) rotate(-17.192251)" fill="white" fill-opacity="0"/>
		</clipPath>
		<clipPath id="clip1_8362">
			<rect id="Frame 1321314854" rx="12.849807" width="25.699614" height="25.699614" transform="translate(150.942383 168.638214) rotate(-17.192251)" fill="white" fill-opacity="0"/>
		</clipPath>
		<clipPath id="clip1_8367">
			<rect id="Frame 1321314857" rx="12.849807" width="25.699614" height="25.699614" transform="translate(211.079346 363.002960) rotate(-17.192251)" fill="white" fill-opacity="0"/>
		</clipPath>
		<clipPath id="clip1_8377">
			<rect id="Frame 1321314855" rx="21.416344" width="137.064621" height="113.506645" transform="translate(220.258301 392.668976) rotate(-17.192251)" fill="white" fill-opacity="0"/>
		</clipPath>
		<clipPath id="clip1_8351">
			<rect id="1" rx="26.770432" width="158.480957" height="328.740906" transform="translate(128.368652 131.907501) rotate(-17.192251)" fill="white" fill-opacity="0"/>
		</clipPath>
		<clipPath id="clip28_756">
			<rect id="tabler-icon-star-filled" rx="-0.278571" width="38.442856" height="38.442856" transform="translate(318.979736 106.432167)" fill="white" fill-opacity="0"/>
		</clipPath>
		<clipPath id="clip1_8398">
			<rect id="3 icon" width="39.000000" height="39.000000" transform="translate(318.701172 106.153595)" fill="white" fill-opacity="0"/>
		</clipPath>
		<clipPath id="clip28_760">
			<rect id="tabler-icon-star-filled" rx="-0.178571" width="24.642855" height="24.642855" transform="translate(351.879730 78.332169)" fill="white" fill-opacity="0"/>
		</clipPath>
		<clipPath id="clip1_8399">
			<rect id="3 icon" width="24.999998" height="24.999998" transform="translate(351.701172 78.153595)" fill="white" fill-opacity="0"/>
		</clipPath>
	</defs>
	<g opacity="0.700000">
		<path id="Vector 317" d="M66.7212 108.661C42.3247 37.6536 138.077 2.54572 154.583 74.7686C171.089 146.991 103.009 230.19 60.1284 219.91C25.824 211.686 33.9658 188.621 42.3247 178.116C103.05 173.381 109.621 261.924 90.5337 299.535C73.0474 333.991 25.9219 296.802 50.5161 271.992C75.1104 247.181 158.703 252.48 165.771 307C172.839 361.52 138.201 399.581 117.157 393.772C84.6521 384.799 111.295 328.68 196.449 318.003C284.201 307 382.701 344.154 388.701 416.154" stroke="#A64CED" stroke-opacity="1.000000" stroke-width="70.000000"/>
	</g>
	<g opacity="0.700000">
		<rect id="Rectangle 150" x="121.671387" y="128.375275" rx="32.124519" width="169.189117" height="339.449097" transform="rotate(-17.1923 121.671387 128.375275)" fill="#000000" fill-opacity="1.000000"/>
	</g>
	<rect id="1" rx="26.770432" width="158.480957" height="328.740906" transform="translate(128.368652 131.907501) rotate(-17.192251)" fill="#FFFFFF" fill-opacity="1.000000"/>
	<g clip-path="url(#clip1_8351)">
		<rect id="Frame 1321314853" rx="21.416344" width="137.064621" height="113.506645" transform="translate(160.121094 198.304474) rotate(-17.192251)" fill="#F9F9F9" fill-opacity="1.000000"/>
		<g clip-path="url(#clip1_8352)">
			<g opacity="0.700000">
				<path id="Vector 284" d="M190.483 281.945L210.943 275.615" stroke="#2FDBBC" stroke-opacity="1.000000" stroke-width="128.498077" stroke-linecap="round"/>
			</g>
			<circle id="Ellipse 1024" r="2.677043" transform="matrix(0.991806 0.991806 -0.127751 0.127751 190.076 257.761)" fill="#000000" fill-opacity="1.000000"/>
			<circle id="Ellipse 1025" r="2.677043" transform="matrix(0.991806 0.991806 -0.127751 0.127751 212.926 256.386)" fill="#000000" fill-opacity="1.000000"/>
			<path id="Vector 298" d="M203.465 281.396C206.27 282.572 212.014 280.888 208.069 275.383C216.764 272.693 207.936 265.897 202.726 269.674" stroke="#000000" stroke-opacity="1.000000" stroke-width="2.141634" stroke-linejoin="round" stroke-linecap="round"/>
			<path id="Vector 299" d="M271.67 261.188C273.868 257.158 277.55 248.652 271.9 246.74C268.084 245.449 265.682 254.626 264.654 260.247C265.682 254.626 267.15 246.754 262.107 246.359C255.804 245.865 256.955 259.798 257.204 267.475C257.454 275.151 257.19 310.087 243.411 294.468M268.234 262.926C271.197 260.967 278.421 258.264 280.817 263.216C282.134 265.937 280.851 267.972 278.921 269.371C277.34 270.517 275.323 271.236 273.947 271.556M266.525 274.857C270.144 274.311 272.625 273.017 273.947 271.556C276.941 268.245 273.987 264.079 264.835 265.83M278.921 269.371C281.424 281.928 280.644 300.943 274.006 311.637C267.367 322.331 255.37 325.747 252.106 325.621" stroke="#000000" stroke-opacity="1.000000" stroke-width="2.141634" stroke-linejoin="round"/>
			<circle id="Ellipse 1028" r="5.354086" transform="matrix(0.955318 0.955318 0.295579 -0.295579 267.698 219.944)" stroke="#000000" stroke-opacity="1.000000" stroke-width="2.141634"/>
			<circle id="Ellipse 1029" r="5.354086" transform="matrix(0.955318 0.955318 0.295579 -0.295579 300.97 200.682)" stroke="#000000" stroke-opacity="1.000000" stroke-width="2.141634"/>
			<path id="Vector 300" d="M272.849 216.669L295.66 203.446M265.957 214.318L260.48 185.748" stroke="#000000" stroke-opacity="1.000000" stroke-width="2.141634" stroke-linejoin="round"/>
			<path id="Vector 301" d="M252.211 184.383L269.297 185.262" stroke="#000000" stroke-opacity="1.000000" stroke-width="2.141634" stroke-linejoin="round" stroke-linecap="round"/>
		</g>
		<rect id="Frame 1321314854" rx="12.849807" width="25.699614" height="25.699614" transform="translate(150.942383 168.638214) rotate(-17.192251)" fill="#DAFAF4" fill-opacity="1.000000"/>
		<g clip-path="url(#clip1_8362)">
			<g opacity="0.700000">
				<rect id="Rectangle 153" x="154.740479" y="180.913849" rx="9.637355" width="25.699614" height="19.274710" transform="rotate(-17.1923 154.740479 180.913849)" fill="#2FDBBC" fill-opacity="1.000000"/>
			</g>
			<circle id="Ellipse 1026" r="0.535409" transform="matrix(0.955318 0.955318 0.295579 -0.295579 166.516 184.556)" fill="#000000" fill-opacity="1.000000"/>
			<circle id="Ellipse 1027" r="0.535409" transform="matrix(0.955318 0.955318 0.295579 -0.295579 171.631 182.974)" fill="#000000" fill-opacity="1.000000"/>
		</g>
		<rect id="Frame 1321314857" rx="12.849807" width="25.699614" height="25.699614" transform="translate(211.079346 363.002960) rotate(-17.192251)" fill="#FFF5EB" fill-opacity="1.000000"/>
		<g clip-path="url(#clip1_8367)">
			<g opacity="0.700000">
				<rect id="Rectangle 153" x="214.877441" y="375.278595" rx="9.637355" width="25.699614" height="19.274710" transform="rotate(-17.1923 214.877441 375.278595)" fill="#FDC280" fill-opacity="1.000000"/>
			</g>
			<circle id="Ellipse 1026" r="0.535409" transform="matrix(0.955318 0.955318 0.295579 -0.295579 226.653 378.921)" fill="#000000" fill-opacity="1.000000"/>
			<circle id="Ellipse 1027" r="0.535409" transform="matrix(0.955318 0.955318 0.295579 -0.295579 231.768 377.338)" fill="#000000" fill-opacity="1.000000"/>
			<circle id="Ellipse 1037" r="1.392062" transform="matrix(0.955318 0.955318 0.295579 -0.295579 226.653 378.921)" stroke="#000000" stroke-opacity="1.000000" stroke-width="0.428327"/>
			<circle id="Ellipse 1038" r="1.392062" transform="matrix(0.955318 0.955318 0.295579 -0.295579 231.768 377.339)" stroke="#000000" stroke-opacity="1.000000" stroke-width="0.428327"/>
			<path id="Vector 311" d="M228.188 378.446L230.233 377.813" stroke="#000000" stroke-opacity="1.000000" stroke-width="0.428327" stroke-linejoin="round" stroke-linecap="round"/>
		</g>
		<path id="Bubi" d="M197.691 162.289L200.404 171.056L201.509 170.713L201.263 169.917Q201.402 170.018 201.552 170.096Q201.865 170.258 202.229 170.323Q202.278 170.332 202.327 170.339Q202.9 170.418 203.51 170.229Q204.055 170.06 204.471 169.729Q204.665 169.574 204.832 169.383Q205.042 169.142 205.193 168.867Q205.415 168.462 205.506 167.986Q205.523 167.898 205.535 167.809Q205.632 167.088 205.395 166.322Q205.16 165.562 204.676 165.026Q204.615 164.958 204.549 164.893Q204.205 164.551 203.794 164.339Q203.513 164.195 203.201 164.112Q202.935 164.04 202.665 164.022Q202.154 163.989 201.63 164.151Q201.089 164.318 200.688 164.654Q200.607 164.722 200.532 164.796Q200.261 165.063 200.09 165.382Q200.011 165.528 199.954 165.685L198.797 161.947L197.691 162.289ZM183.983 166.8L186.619 175.32L189.91 174.302Q190.806 174.025 191.323 173.51Q191.767 173.067 191.95 172.535Q191.982 172.444 192.005 172.35Q192.056 172.153 192.071 171.953Q192.107 171.499 191.962 171.031Q191.793 170.486 191.446 170.104Q191.277 169.918 191.066 169.771Q191.03 169.745 190.993 169.721Q190.518 169.41 189.903 169.313Q190.232 168.943 190.375 168.523Q190.439 168.336 190.465 168.143Q190.526 167.687 190.377 167.203Q190.267 166.85 190.064 166.564Q189.929 166.374 189.752 166.214Q189.69 166.156 189.623 166.105Q189.219 165.793 188.659 165.685Q188.008 165.555 187.175 165.812L183.983 166.8ZM185.449 167.45L186.231 169.979L188.293 169.342Q188.86 169.166 189.125 168.782Q189.147 168.75 189.167 168.716Q189.213 168.64 189.245 168.557Q189.395 168.17 189.238 167.663Q189.09 167.185 188.766 166.954Q188.674 166.889 188.568 166.843Q188.531 166.827 188.494 166.813Q188.041 166.648 187.463 166.827L185.449 167.45ZM186.543 170.986L187.462 173.956L189.658 173.277Q190.256 173.092 190.555 172.687Q190.624 172.592 190.678 172.485Q190.812 172.214 190.839 171.933Q190.869 171.626 190.77 171.307Q190.66 170.952 190.435 170.698Q190.395 170.652 190.35 170.61Q190.244 170.506 190.121 170.428Q189.911 170.296 189.652 170.241Q189.243 170.151 188.775 170.296L186.543 170.986ZM205.568 161.697Q205.748 161.734 205.949 161.672Q206.146 161.611 206.271 161.481Q206.34 161.409 206.388 161.316Q206.438 161.218 206.456 161.114Q206.487 160.938 206.428 160.746Q206.374 160.571 206.261 160.451Q206.183 160.367 206.076 160.309Q205.981 160.256 205.879 160.236Q205.705 160.201 205.512 160.26Q205.316 160.321 205.19 160.45Q205.118 160.524 205.069 160.621Q205.016 160.724 204.999 160.833Q204.973 160.999 205.028 161.179Q205.089 161.376 205.218 161.505Q205.289 161.577 205.381 161.628Q205.471 161.677 205.568 161.697ZM195.25 172.519Q195.838 172.603 196.466 172.409Q197.179 172.188 197.63 171.717Q197.645 171.701 197.661 171.684Q197.861 171.465 198 171.212Q198.178 170.889 198.257 170.511Q198.398 169.834 198.163 169.073L197.114 165.683L196.011 166.024L197.045 169.366Q197.261 170.062 197.044 170.578Q197.036 170.597 197.028 170.616Q196.965 170.753 196.874 170.868Q196.616 171.193 196.136 171.342Q195.704 171.475 195.327 171.392Q195.194 171.361 195.074 171.303Q194.855 171.198 194.679 171.004Q194.405 170.705 194.258 170.228L193.224 166.887L192.118 167.229L193.167 170.618Q193.402 171.38 193.899 171.86Q194.154 172.104 194.455 172.262Q194.741 172.413 195.068 172.486Q195.159 172.506 195.25 172.519ZM205.756 163.009L207.56 168.841L208.666 168.499L206.861 162.667L205.756 163.009ZM203.809 168.776Q203.49 169.093 203.005 169.243Q202.588 169.372 202.191 169.325Q202.075 169.312 201.96 169.283Q201.731 169.225 201.529 169.115Q201.291 168.984 201.092 168.78Q200.725 168.401 200.546 167.823Q200.364 167.235 200.458 166.711Q200.52 166.358 200.692 166.071Q200.777 165.928 200.89 165.802Q200.924 165.764 200.96 165.728Q201.286 165.403 201.783 165.25Q202.238 165.109 202.662 165.175Q202.74 165.187 202.817 165.206Q202.967 165.243 203.107 165.303Q203.431 165.442 203.701 165.707Q203.725 165.731 203.749 165.756Q204.098 166.12 204.265 166.659Q204.447 167.25 204.341 167.775Q204.273 168.105 204.112 168.381Q204.018 168.543 203.893 168.685Q203.852 168.732 203.809 168.776Z" fill="#B9B9B9" fill-opacity="1.000000" fill-rule="evenodd"/>
		<path id="Feed" d="M172.405 142.729L173.756 142.311L171.022 133.473L169.67 133.891L170.783 137.488Q170.723 137.451 170.661 137.418Q170.366 137.26 170.024 137.19Q170.007 137.186 169.989 137.183Q169.394 137.07 168.739 137.272Q168.233 137.429 167.84 137.732Q167.614 137.906 167.425 138.129Q167.234 138.354 167.091 138.608Q166.849 139.039 166.748 139.55Q166.733 139.624 166.722 139.699Q166.612 140.438 166.857 141.23Q167.083 141.958 167.54 142.485Q167.623 142.581 167.713 142.67Q168.085 143.034 168.528 143.249Q168.788 143.376 169.072 143.451Q169.34 143.523 169.612 143.54Q170.119 143.571 170.638 143.41Q171.278 143.212 171.706 142.796Q171.729 142.773 171.751 142.75Q172.029 142.463 172.19 142.121Q172.198 142.103 172.206 142.086L172.405 142.729ZM145.821 141.539L148.479 150.132L149.891 149.695L148.751 146.011L152.68 144.796L152.282 143.507L148.353 144.723L147.631 142.391L151.77 141.111L151.371 139.822L145.821 141.539ZM156.38 147.526Q157.071 147.608 157.798 147.383Q158.308 147.225 158.733 146.939Q158.881 146.839 159.019 146.723Q159.298 146.489 159.506 146.204Q159.697 145.942 159.829 145.638L158.699 145.032Q158.628 145.192 158.53 145.333Q158.387 145.538 158.188 145.703Q157.85 145.981 157.395 146.122Q156.874 146.283 156.405 146.188Q156.399 146.187 156.393 146.186Q156.18 146.14 155.992 146.044Q155.761 145.927 155.567 145.735Q155.399 145.567 155.272 145.353L159.668 143.993Q159.647 143.796 159.618 143.638Q159.591 143.479 159.546 143.332Q159.297 142.527 158.773 141.99Q158.745 141.961 158.716 141.933Q158.385 141.612 157.991 141.416Q157.71 141.275 157.398 141.198Q157.292 141.172 157.185 141.155Q156.532 141.049 155.827 141.267Q155.239 141.449 154.785 141.803Q154.584 141.959 154.409 142.15Q154.132 142.451 153.945 142.801Q153.749 143.168 153.652 143.589Q153.614 143.752 153.594 143.918Q153.516 144.581 153.731 145.278Q153.935 145.935 154.341 146.423Q154.474 146.583 154.629 146.725Q154.944 147.013 155.311 147.201Q155.672 147.387 156.083 147.477Q156.231 147.509 156.38 147.526ZM154.934 144.246Q154.921 144.021 154.96 143.815Q155.012 143.535 155.145 143.302Q155.233 143.149 155.356 143.016Q155.668 142.676 156.184 142.516Q156.675 142.364 157.075 142.457Q157.214 142.489 157.34 142.547Q157.577 142.656 157.771 142.86Q157.936 143.032 158.07 143.276L154.934 144.246ZM162.935 145.498Q163.626 145.58 164.353 145.355Q164.864 145.197 165.288 144.911Q165.436 144.81 165.574 144.695Q165.853 144.461 166.062 144.175Q166.253 143.914 166.384 143.61L165.254 143.004Q165.183 143.164 165.085 143.305Q164.943 143.509 164.743 143.674Q164.405 143.953 163.95 144.094Q163.429 144.255 162.96 144.16Q162.954 144.159 162.948 144.157Q162.735 144.111 162.547 144.016Q162.316 143.899 162.122 143.707Q161.954 143.539 161.827 143.325L166.224 141.965Q166.202 141.768 166.173 141.61Q166.146 141.45 166.101 141.303Q165.852 140.498 165.328 139.962Q165.3 139.933 165.271 139.905Q164.94 139.584 164.546 139.387Q164.266 139.247 163.953 139.17Q163.847 139.144 163.74 139.127Q163.087 139.021 162.382 139.239Q161.794 139.421 161.34 139.775Q161.139 139.931 160.964 140.121Q160.687 140.423 160.501 140.773Q160.304 141.14 160.207 141.561Q160.169 141.724 160.149 141.89Q160.071 142.553 160.287 143.25Q160.49 143.907 160.896 144.395Q161.029 144.555 161.184 144.697Q161.5 144.984 161.866 145.173Q162.228 145.359 162.638 145.449Q162.786 145.481 162.935 145.498ZM161.489 142.218Q161.476 141.993 161.515 141.786Q161.567 141.507 161.7 141.274Q161.788 141.121 161.911 140.987Q162.223 140.648 162.739 140.488Q163.23 140.336 163.63 140.429Q163.769 140.46 163.895 140.518Q164.132 140.628 164.326 140.831Q164.492 141.004 164.626 141.248L161.489 142.218ZM171.24 141.601Q170.942 141.917 170.465 142.065Q170.034 142.198 169.639 142.128Q169.584 142.119 169.529 142.105Q169.377 142.067 169.238 142.003Q168.967 141.878 168.743 141.655Q168.405 141.316 168.241 140.789Q168.078 140.262 168.166 139.791Q168.227 139.466 168.39 139.203Q168.465 139.083 168.561 138.976Q168.577 138.958 168.593 138.94Q168.891 138.624 169.368 138.477Q169.799 138.343 170.194 138.413Q170.25 138.423 170.305 138.436Q170.462 138.475 170.605 138.543Q170.867 138.667 171.082 138.889Q171.417 139.229 171.58 139.756Q171.743 140.283 171.659 140.753Q171.608 141.043 171.472 141.286Q171.389 141.435 171.273 141.565Q171.257 141.583 171.24 141.601Z" fill="#E4E4E4" fill-opacity="1.000000" fill-rule="evenodd"/>
		<rect id="Frame 1321314855" rx="21.416344" width="137.064621" height="113.506645" transform="translate(220.258301 392.668976) rotate(-17.192251)" fill="#F9F9F9" fill-opacity="1.000000"/>
		<g clip-path="url(#clip1_8377)">
			<g opacity="0.700000">
				<path id="Vector 308" d="M393.695 391.689L328.225 411.946" stroke="#FFAA4C" stroke-opacity="1.000000" stroke-width="103.147392" stroke-linecap="round"/>
			</g>
			<path id="Vector 309" d="M326.976 397.889C325.333 400.47 319.467 402.423 315.948 401.249" stroke="#000000" stroke-opacity="1.000000" stroke-width="2.141634" stroke-linejoin="round" stroke-linecap="round"/>
			<circle id="Ellipse 1033" r="2.677043" transform="matrix(0.955318 0.955318 0.295579 -0.295579 300.839 394.078)" fill="#000000" fill-opacity="1.000000"/>
			<circle id="Ellipse 1034" r="2.677043" transform="matrix(0.955318 0.955318 0.295579 -0.295579 323.344 387.115)" fill="#000000" fill-opacity="1.000000"/>
			<circle id="Ellipse 1035" r="7.495722" transform="matrix(0.955318 0.955318 0.295579 -0.295579 303.238 392.775)" stroke="#000000" stroke-opacity="1.000000" stroke-width="2.141634"/>
			<circle id="Ellipse 1036" r="7.495722" transform="matrix(0.955318 0.955318 0.295579 -0.295579 325.743 385.812)" stroke="#000000" stroke-opacity="1.000000" stroke-width="2.141634"/>
			<path id="Vector 310" d="M310.557 391.071L318.741 388.539" stroke="#000000" stroke-opacity="1.000000" stroke-width="2.141634" stroke-linejoin="round" stroke-linecap="round"/>
			<path id="Vector 293" d="M229.594 444.58C229.07 446.887 230.515 449.182 232.821 449.706L257.496 455.315C259.802 455.84 262.098 454.395 262.622 452.088L268.291 427.152C268.815 424.845 267.371 422.55 265.064 422.026L258.756 420.591L252.202 419.102L246.96 417.91L241.717 416.718L240.389 416.416C238.083 415.892 235.788 417.337 235.263 419.643L229.594 444.58ZM241.717 416.718C242.206 412.143 244.389 403.266 249.213 404.363C254.036 405.459 253.215 414.645 252.202 419.102M246.96 417.91C247.488 413.16 250.025 403.941 255.945 405.066C261.864 406.191 260.285 415.885 258.756 420.591" stroke="#000000" stroke-opacity="1.000000" stroke-width="2.141634" stroke-linejoin="round"/>
		</g>
		<path id="Bubu" d="M257.828 356.654L260.541 365.42L261.647 365.078L261.4 364.282Q261.539 364.382 261.689 364.46Q262.003 364.623 262.367 364.688Q262.415 364.697 262.464 364.703Q263.037 364.783 263.648 364.594Q264.193 364.425 264.608 364.094Q264.803 363.939 264.969 363.748Q265.18 363.506 265.33 363.231Q265.552 362.827 265.643 362.351Q265.66 362.262 265.672 362.174Q265.769 361.453 265.532 360.687Q265.297 359.927 264.814 359.391Q264.752 359.323 264.686 359.258Q264.342 358.915 263.931 358.704Q263.65 358.56 263.338 358.476Q263.072 358.405 262.803 358.387Q262.291 358.354 261.767 358.516Q261.226 358.683 260.825 359.019Q260.745 359.086 260.67 359.161Q260.399 359.427 260.227 359.747Q260.149 359.893 260.091 360.05L258.934 356.312L257.828 356.654ZM244.12 361.165L246.757 369.685L250.047 368.667Q250.943 368.39 251.461 367.875Q251.904 367.432 252.088 366.9Q252.119 366.809 252.143 366.715Q252.193 366.518 252.209 366.318Q252.244 365.864 252.099 365.395Q251.93 364.851 251.583 364.469Q251.415 364.283 251.203 364.136Q251.167 364.11 251.13 364.086Q250.655 363.775 250.04 363.678Q250.369 363.308 250.512 362.888Q250.576 362.7 250.602 362.507Q250.664 362.052 250.514 361.567Q250.405 361.214 250.201 360.928Q250.066 360.739 249.889 360.578Q249.827 360.521 249.76 360.47Q249.357 360.158 248.796 360.05Q248.145 359.919 247.312 360.177L244.12 361.165ZM245.586 361.815L246.368 364.344L248.43 363.706Q248.997 363.531 249.262 363.147Q249.284 363.115 249.304 363.081Q249.35 363.004 249.382 362.922Q249.532 362.535 249.376 362.028Q249.228 361.55 248.903 361.319Q248.811 361.253 248.705 361.208Q248.669 361.192 248.631 361.178Q248.179 361.013 247.6 361.192L245.586 361.815ZM246.68 365.351L247.599 368.321L249.796 367.642Q250.393 367.457 250.692 367.051Q250.762 366.957 250.815 366.85Q250.95 366.579 250.976 366.298Q251.006 365.991 250.907 365.672Q250.797 365.317 250.572 365.063Q250.532 365.017 250.488 364.974Q250.381 364.87 250.258 364.793Q250.048 364.66 249.789 364.606Q249.38 364.516 248.913 364.66L246.68 365.351ZM255.388 366.884Q255.976 366.967 256.603 366.773Q257.316 366.553 257.767 366.082Q257.783 366.065 257.798 366.049Q257.998 365.83 258.137 365.577Q258.315 365.254 258.394 364.876Q258.535 364.199 258.3 363.437L257.251 360.048L256.148 360.389L257.182 363.731Q257.398 364.427 257.182 364.943Q257.174 364.962 257.165 364.98Q257.102 365.117 257.011 365.232Q256.754 365.558 256.273 365.706Q255.842 365.84 255.464 365.756Q255.331 365.725 255.211 365.667Q254.992 365.562 254.816 365.369Q254.542 365.069 254.395 364.593L253.361 361.251L252.255 361.593L253.304 364.983Q253.539 365.744 254.036 366.224Q254.292 366.468 254.592 366.627Q254.878 366.778 255.205 366.851Q255.296 366.871 255.388 366.884ZM268.866 362.714Q269.454 362.797 270.082 362.603Q270.795 362.382 271.246 361.911Q271.261 361.895 271.276 361.879Q271.477 361.66 271.616 361.407Q271.794 361.084 271.872 360.706Q272.014 360.028 271.779 359.267L270.73 355.877L269.627 356.219L270.661 359.56Q270.876 360.257 270.66 360.772Q270.652 360.791 270.644 360.81Q270.581 360.947 270.49 361.062Q270.232 361.387 269.752 361.536Q269.32 361.67 268.943 361.586Q268.81 361.555 268.69 361.497Q268.471 361.392 268.294 361.199Q268.021 360.899 267.874 360.423L266.84 357.081L265.734 357.423L266.783 360.813Q267.018 361.574 267.515 362.054Q267.77 362.298 268.071 362.456Q268.357 362.607 268.684 362.681Q268.775 362.701 268.866 362.714ZM263.946 363.141Q263.627 363.457 263.142 363.607Q262.725 363.736 262.328 363.69Q262.212 363.677 262.097 363.648Q261.868 363.59 261.667 363.48Q261.428 363.349 261.229 363.145Q260.862 362.766 260.683 362.188Q260.502 361.6 260.595 361.075Q260.657 360.722 260.829 360.435Q260.915 360.293 261.027 360.167Q261.061 360.129 261.097 360.093Q261.423 359.768 261.92 359.615Q262.376 359.474 262.799 359.539Q262.877 359.551 262.954 359.571Q263.104 359.607 263.244 359.667Q263.568 359.807 263.838 360.072Q263.863 360.096 263.886 360.121Q264.235 360.485 264.402 361.024Q264.585 361.614 264.478 362.14Q264.41 362.47 264.249 362.746Q264.156 362.907 264.03 363.05Q263.99 363.097 263.946 363.141Z" fill="#B9B9B9" fill-opacity="1.000000" fill-rule="evenodd"/>
		<g opacity="0.700000">
			<rect id="Rectangle 152" x="187.723877" y="128.114532" rx="5.354086" width="42.832691" height="10.708173" transform="rotate(-17.1923 187.723877 128.114532)" fill="#000000" fill-opacity="1.000000"/>
		</g>
		<path id="I bought myself an electric scooter" d="M277.359 294.772L278.852 299.597L279.958 299.255L278.465 294.43L280.317 293.856L280.005 292.849L278.153 293.423L277.884 292.553Q277.729 292.052 277.883 291.676Q277.895 291.646 277.91 291.616Q277.941 291.552 277.981 291.494Q278.188 291.195 278.63 291.058Q278.912 290.971 279.135 291.004Q279.361 291.033 279.576 291.153L280.078 290.22Q279.67 289.981 279.248 289.925Q278.827 289.868 278.323 290.024Q277.661 290.229 277.25 290.664Q277.018 290.911 276.875 291.202Q276.766 291.424 276.709 291.673Q276.577 292.245 276.778 292.896L277.047 293.765L275.612 294.209L275.923 295.216L277.359 294.772ZM202.914 313.487L205.626 322.253L206.732 321.911L206.486 321.115Q206.624 321.215 206.775 321.293Q207.088 321.456 207.452 321.521Q207.501 321.529 207.549 321.536Q208.123 321.615 208.733 321.426Q209.278 321.258 209.693 320.927Q209.888 320.772 210.054 320.581Q210.265 320.339 210.416 320.064Q210.637 319.66 210.729 319.184Q210.746 319.095 210.758 319.006Q210.855 318.286 210.618 317.52Q210.383 316.76 209.899 316.224Q209.837 316.155 209.772 316.091Q209.428 315.748 209.016 315.537Q208.735 315.392 208.423 315.309Q208.157 315.237 207.888 315.22Q207.377 315.186 206.852 315.349Q206.311 315.516 205.911 315.851Q205.83 315.919 205.755 315.994Q205.484 316.26 205.312 316.58Q205.234 316.726 205.176 316.883L204.02 313.145L202.914 313.487ZM230.448 304.968L233.16 313.734L234.266 313.392L233.214 309.99Q233.089 309.588 233.153 309.218Q233.159 309.183 233.167 309.148Q233.216 308.93 233.32 308.742Q233.409 308.58 233.539 308.441Q233.568 308.41 233.599 308.38Q233.868 308.123 234.266 308Q234.708 307.863 235.099 307.951Q235.295 307.995 235.478 308.094Q235.659 308.193 235.803 308.33Q236.097 308.611 236.235 309.055L237.287 312.457L238.39 312.116L237.27 308.495Q237.058 307.812 236.607 307.377Q236.603 307.373 236.6 307.37Q236.329 307.111 236.008 306.958Q235.787 306.852 235.543 306.797Q235.496 306.786 235.45 306.778Q234.89 306.674 234.276 306.864Q233.737 307.03 233.35 307.37Q233.261 307.448 233.18 307.535Q232.931 307.799 232.78 308.111Q232.732 308.209 232.694 308.312L231.554 304.626L230.448 304.968ZM272.578 291.933L275.29 300.699L276.396 300.357L273.684 291.59L272.578 291.933ZM197.467 315.441L200.103 323.962L201.257 323.605L198.621 315.084L197.467 315.441ZM239.217 306.573L240.71 311.398L241.816 311.056L240.323 306.231L241.758 305.787L241.447 304.78L240.011 305.224L239.256 302.781L238.15 303.123L238.905 305.566L237.47 306.01L237.781 307.017L239.217 306.573ZM214.175 319.479Q214.81 319.546 215.473 319.341Q216.069 319.157 216.527 318.796Q216.72 318.644 216.888 318.46Q217.18 318.142 217.373 317.773Q217.556 317.421 217.649 317.023Q217.697 316.812 217.716 316.598Q217.77 315.981 217.572 315.342Q217.382 314.729 217.007 314.266Q216.864 314.088 216.693 313.933Q216.398 313.665 216.058 313.483Q215.685 313.284 215.257 313.188Q215.022 313.134 214.785 313.118Q214.196 313.076 213.592 313.263Q212.937 313.466 212.456 313.874Q212.306 314.001 212.172 314.149Q211.881 314.469 211.688 314.84Q211.509 315.185 211.414 315.573Q211.364 315.781 211.344 315.991Q211.287 316.597 211.482 317.226Q211.68 317.865 212.073 318.344Q212.209 318.51 212.368 318.657Q212.7 318.959 213.085 319.154Q213.423 319.325 213.801 319.415Q213.987 319.459 214.175 319.479ZM227.25 315.211Q227.832 315.274 228.441 315.086Q229.118 314.876 229.562 314.443Q229.827 314.185 229.992 313.873Q230.069 313.725 230.125 313.566L230.365 314.343Q230.533 314.884 230.412 315.351Q230.355 315.572 230.234 315.776Q230.204 315.826 230.171 315.874Q229.788 316.432 228.963 316.688Q228.288 316.896 227.723 316.809Q227.575 316.786 227.433 316.746Q227.028 316.632 226.663 316.378L226.173 317.321Q226.372 317.477 226.59 317.593Q227.037 317.832 227.571 317.91Q228.369 318.027 229.265 317.75Q230.173 317.469 230.755 316.898Q231.167 316.495 231.385 316.006Q231.476 315.801 231.533 315.581Q231.55 315.516 231.563 315.452Q231.704 314.765 231.468 314.001L229.736 308.403L228.633 308.744L228.873 309.52Q228.745 309.427 228.607 309.354Q228.295 309.19 227.93 309.126Q227.318 309.016 226.629 309.23Q226.036 309.413 225.6 309.782Q225.45 309.91 225.319 310.059Q225.1 310.307 224.945 310.59Q224.736 310.97 224.642 311.414Q224.622 311.506 224.608 311.598Q224.507 312.284 224.734 313.018Q224.955 313.733 225.408 314.242Q225.485 314.328 225.568 314.408Q225.927 314.754 226.354 314.956Q226.611 315.078 226.893 315.148Q227.071 315.191 227.25 315.211ZM249.735 304.744L250.826 308.268L251.931 307.926L250.837 304.39Q250.706 303.964 250.803 303.6L250.805 303.595Q250.857 303.408 250.952 303.246Q251.044 303.088 251.178 302.954Q251.207 302.925 251.237 302.898Q251.495 302.669 251.856 302.557Q252.234 302.44 252.58 302.501Q252.776 302.535 252.961 302.626Q253.081 302.684 253.184 302.764Q253.522 303.026 253.676 303.524L254.767 307.049L255.885 306.703L254.726 302.96Q254.513 302.27 254.059 301.876Q253.821 301.665 253.544 301.534Q253.297 301.417 253.021 301.363Q252.979 301.355 252.938 301.348Q252.388 301.26 251.794 301.443Q251.367 301.576 251.03 301.827Q250.882 301.938 250.751 302.072Q250.537 302.287 250.387 302.54Q250.233 302.798 250.144 303.094Q250.141 303.103 250.138 303.113Q250.128 303.104 250.118 303.095Q249.889 302.885 249.621 302.753Q249.375 302.632 249.097 302.577Q248.999 302.556 248.899 302.545Q248.414 302.489 247.904 302.647Q247.385 302.808 247.009 303.134Q246.932 303.201 246.861 303.275Q246.644 303.499 246.502 303.763Q246.442 303.874 246.396 303.993L246.186 303.313L245.08 303.655L246.885 309.488L247.99 309.145L246.896 305.609Q246.765 305.184 246.862 304.82Q246.863 304.817 246.864 304.814Q246.922 304.606 247.031 304.429Q247.116 304.293 247.231 304.175Q247.248 304.159 247.265 304.142Q247.524 303.898 247.903 303.78Q248.31 303.654 248.677 303.728Q248.853 303.763 249.02 303.845Q249.14 303.903 249.243 303.983Q249.581 304.245 249.735 304.744ZM264.393 304.064Q264.871 304.057 265.362 303.905Q266.345 303.601 266.778 302.942Q266.947 302.686 267.013 302.405Q267.116 301.963 266.96 301.46Q266.793 300.921 266.463 300.661Q266.31 300.54 266.138 300.457Q265.94 300.36 265.716 300.315Q265.658 300.302 265.599 300.292Q265.24 300.227 264.869 300.232Q264.44 300.237 264.044 300.238Q263.65 300.238 263.379 300.148Q263.27 300.112 263.191 300.043Q263.071 299.939 263.016 299.761Q262.973 299.622 262.995 299.495Q263.02 299.353 263.126 299.225Q263.326 298.979 263.805 298.831Q264.258 298.691 264.674 298.752Q264.878 298.781 265.065 298.854Q265.259 298.93 265.434 299.052L265.927 298.122Q265.663 297.922 265.366 297.808Q265.109 297.709 264.827 297.674Q264.219 297.599 263.53 297.812Q262.879 298.014 262.483 298.366Q262.18 298.636 262.029 298.974Q261.983 299.076 261.951 299.184Q261.932 299.249 261.918 299.315Q261.835 299.724 261.976 300.178Q262.139 300.706 262.463 300.957Q262.583 301.048 262.716 301.116Q262.942 301.232 263.203 301.279Q263.617 301.352 264.051 301.345Q264.486 301.339 264.879 301.346Q265.272 301.352 265.551 301.459Q265.654 301.498 265.733 301.565Q265.87 301.683 265.933 301.886Q265.977 302.028 265.956 302.159Q265.93 302.323 265.805 302.471Q265.578 302.735 265.063 302.895Q264.547 303.054 264.069 302.995Q264.044 302.992 264.018 302.988Q263.57 302.916 263.154 302.638L262.661 303.572Q262.723 303.613 262.787 303.65Q263.107 303.839 263.476 303.944Q263.537 303.961 263.598 303.976Q263.984 304.069 264.393 304.064ZM270.121 302.167Q270.771 302.232 271.449 302.022Q271.992 301.854 272.433 301.542Q272.552 301.458 272.664 301.364Q272.984 301.094 273.208 300.76Q273.354 300.542 273.46 300.296L272.522 299.792Q272.421 300.028 272.268 300.226Q272.14 300.391 271.976 300.529Q271.618 300.827 271.126 300.979Q270.563 301.153 270.049 301.059Q270.027 301.054 270.005 301.05Q269.748 300.996 269.524 300.878Q269.287 300.752 269.087 300.556Q268.849 300.319 268.686 299.997L273.252 298.584Q273.232 298.39 273.2 298.246Q273.168 298.101 273.13 297.978Q272.892 297.207 272.394 296.683Q272.359 296.647 272.323 296.612Q272.008 296.3 271.631 296.109Q271.352 295.968 271.04 295.893Q270.96 295.873 270.879 295.859Q270.217 295.743 269.497 295.966Q268.859 296.163 268.387 296.558Q268.231 296.689 268.092 296.841Q267.832 297.125 267.652 297.454Q267.447 297.828 267.346 298.26Q267.307 298.43 267.288 298.602Q267.216 299.25 267.426 299.93Q267.644 300.636 268.09 301.14Q268.196 301.259 268.314 301.366Q268.606 301.631 268.944 301.811Q269.321 302.013 269.755 302.109Q269.937 302.149 270.121 302.167ZM268.404 299.076Q268.362 298.743 268.42 298.441Q268.473 298.158 268.602 297.917Q268.709 297.717 268.869 297.546Q268.875 297.54 268.881 297.534Q269.231 297.165 269.788 296.993Q270.327 296.826 270.778 296.936Q270.952 296.978 271.109 297.056Q271.358 297.179 271.563 297.392Q271.793 297.628 271.951 297.978L268.404 299.076ZM220.9 317.397Q221.488 317.48 222.115 317.286Q222.828 317.065 223.279 316.594Q223.295 316.578 223.31 316.562Q223.51 316.343 223.649 316.09Q223.827 315.767 223.906 315.389Q224.047 314.711 223.812 313.95L222.763 310.56L221.66 310.902L222.694 314.243Q222.91 314.94 222.694 315.455Q222.686 315.474 222.677 315.493Q222.614 315.63 222.523 315.745Q222.266 316.07 221.785 316.219Q221.354 316.353 220.976 316.269Q220.843 316.238 220.723 316.18Q220.504 316.075 220.328 315.882Q220.054 315.582 219.907 315.106L218.873 311.764L217.767 312.106L218.816 315.496Q219.051 316.257 219.548 316.737Q219.803 316.981 220.104 317.139Q220.39 317.29 220.717 317.364Q220.808 317.384 220.9 317.397ZM259.972 305.491L259.61 308.227L258.382 308.607L258.908 305.224L254.964 300.597L256.19 300.218L259.157 303.83L259.652 299.147L260.88 298.767L259.972 305.491ZM209.031 319.973Q208.712 320.29 208.227 320.44Q207.81 320.569 207.413 320.523Q207.297 320.509 207.183 320.481Q206.953 320.423 206.752 320.313Q206.513 320.182 206.314 319.978Q205.948 319.599 205.769 319.02Q205.587 318.433 205.681 317.908Q205.743 317.555 205.915 317.268Q206 317.126 206.112 317Q206.146 316.962 206.182 316.926Q206.509 316.601 207.005 316.447Q207.461 316.306 207.885 316.372Q207.962 316.384 208.039 316.403Q208.189 316.44 208.329 316.5Q208.653 316.64 208.923 316.905Q208.948 316.929 208.971 316.953Q209.32 317.318 209.487 317.857Q209.67 318.447 209.563 318.973Q209.495 319.303 209.335 319.579Q209.241 319.74 209.116 319.883Q209.075 319.93 209.031 319.973ZM229.201 313.464Q228.866 313.811 228.34 313.974Q227.818 314.136 227.342 314.048Q227.315 314.043 227.289 314.037Q227.059 313.986 226.855 313.883Q226.619 313.764 226.419 313.573Q226.402 313.556 226.384 313.539Q226.039 313.192 225.876 312.665Q225.712 312.136 225.806 311.657Q225.81 311.637 225.814 311.616Q225.875 311.333 226.012 311.093Q226.117 310.909 226.265 310.751Q226.275 310.74 226.285 310.73Q226.627 310.376 227.162 310.211Q227.714 310.04 228.192 310.155Q228.4 310.202 228.584 310.296Q228.827 310.419 229.03 310.621Q229.388 310.973 229.563 311.537Q229.738 312.103 229.647 312.595Q229.602 312.842 229.493 313.057Q229.386 313.267 229.218 313.447Q229.209 313.455 229.201 313.464ZM215.919 317.839Q215.601 318.132 215.143 318.274Q214.692 318.414 214.267 318.356Q214.173 318.343 214.08 318.321Q213.862 318.267 213.666 318.168Q213.407 318.036 213.188 317.825Q213.175 317.813 213.163 317.801Q212.797 317.433 212.624 316.873Q212.464 316.356 212.543 315.879Q212.55 315.836 212.559 315.793Q212.621 315.496 212.762 315.243Q212.868 315.054 213.018 314.889Q213.071 314.831 213.129 314.779Q213.454 314.478 213.923 314.333Q214.413 314.182 214.863 314.26Q214.919 314.27 214.975 314.284Q215.168 314.33 215.344 314.412Q215.628 314.544 215.868 314.769Q215.913 314.812 215.956 314.857Q216.276 315.198 216.43 315.695Q216.603 316.255 216.509 316.766Q216.506 316.783 216.502 316.799Q216.443 317.087 216.31 317.335Q216.201 317.537 216.043 317.713Q215.984 317.779 215.919 317.839ZM224.927 323.424L227.639 332.19L228.745 331.848L226.033 323.082L224.927 323.424ZM250.334 317.408Q250.514 317.445 250.715 317.383Q250.912 317.322 251.037 317.192Q251.106 317.12 251.153 317.027Q251.203 316.929 251.222 316.825Q251.253 316.649 251.193 316.457Q251.139 316.282 251.027 316.162Q250.948 316.078 250.842 316.02Q250.746 315.967 250.644 315.947Q250.471 315.912 250.278 315.971Q250.082 316.032 249.956 316.161Q249.884 316.235 249.835 316.332Q249.782 316.435 249.765 316.545Q249.738 316.711 249.794 316.89Q249.855 317.087 249.983 317.216Q250.054 317.288 250.146 317.339Q250.237 317.388 250.334 317.408ZM242.277 322.375L243.77 327.2L244.876 326.858L243.383 322.032L244.818 321.588L244.507 320.581L243.071 321.025L242.315 318.583L241.209 318.925L241.965 321.368L240.53 321.812L240.841 322.819L242.277 322.375ZM287.869 308.268L289.361 313.093L290.467 312.751L288.974 307.926L290.41 307.482L290.098 306.475L288.663 306.919L287.907 304.477L286.801 304.819L287.557 307.261L286.121 307.705L286.433 308.712L287.869 308.268ZM206.108 338.796Q206.625 338.827 207.154 338.663Q207.829 338.455 208.265 338.018Q208.505 337.777 208.662 337.49Q208.75 337.328 208.811 337.152L209.055 337.94L210.173 337.595L208.369 331.762L207.251 332.108L207.498 332.905Q207.349 332.797 207.186 332.715Q206.887 332.563 206.544 332.498Q206.518 332.493 206.491 332.488Q205.907 332.389 205.274 332.585Q204.704 332.762 204.279 333.113Q204.098 333.262 203.943 333.444Q203.746 333.674 203.6 333.933Q203.363 334.354 203.263 334.853Q203.241 334.962 203.227 335.072Q203.137 335.772 203.366 336.512Q203.597 337.258 204.069 337.788Q204.142 337.869 204.22 337.946Q204.568 338.284 204.982 338.491Q205.266 338.633 205.581 338.713Q205.843 338.78 206.108 338.796ZM214.854 332.419L215.906 335.821L217.009 335.48L215.889 331.859Q215.804 331.584 215.662 331.343Q215.493 331.055 215.244 330.814Q215.013 330.591 214.743 330.436Q214.477 330.283 214.173 330.197Q214.031 330.156 213.886 330.136Q213.406 330.069 212.895 330.227Q212.356 330.394 211.969 330.733Q211.88 330.811 211.799 330.898Q211.55 331.163 211.399 331.475Q211.351 331.573 211.313 331.675L211.081 330.923L209.975 331.266L211.779 337.098L212.885 336.755L211.833 333.354Q211.708 332.952 211.772 332.582Q211.778 332.546 211.786 332.511Q211.835 332.293 211.938 332.106Q212.028 331.944 212.158 331.805Q212.187 331.774 212.218 331.744Q212.487 331.486 212.885 331.363Q213.327 331.227 213.718 331.314Q213.914 331.358 214.097 331.458Q214.278 331.556 214.422 331.694Q214.716 331.975 214.854 332.419ZM222.47 333.659Q223.12 333.723 223.798 333.514Q224.341 333.346 224.782 333.034Q224.901 332.95 225.013 332.855Q225.333 332.586 225.557 332.252Q225.703 332.034 225.809 331.788L224.871 331.283Q224.77 331.52 224.617 331.717Q224.489 331.883 224.325 332.021Q223.967 332.319 223.475 332.471Q222.912 332.645 222.398 332.55Q222.376 332.546 222.354 332.542Q222.097 332.487 221.873 332.369Q221.636 332.244 221.436 332.047Q221.198 331.811 221.035 331.489L225.601 330.076Q225.581 329.882 225.549 329.737Q225.517 329.593 225.479 329.47Q225.241 328.699 224.743 328.175Q224.708 328.139 224.672 328.104Q224.357 327.792 223.98 327.601Q223.701 327.459 223.389 327.384Q223.309 327.365 223.228 327.351Q222.566 327.235 221.846 327.458Q221.208 327.655 220.736 328.05Q220.58 328.18 220.441 328.333Q220.181 328.617 220.001 328.945Q219.796 329.32 219.695 329.752Q219.656 329.922 219.637 330.093Q219.565 330.742 219.775 331.422Q219.993 332.127 220.439 332.631Q220.545 332.75 220.663 332.858Q220.955 333.123 221.293 333.303Q221.67 333.505 222.104 333.601Q222.286 333.641 222.47 333.659ZM220.753 330.568Q220.711 330.234 220.769 329.932Q220.822 329.65 220.951 329.409Q221.058 329.209 221.218 329.038Q221.224 329.032 221.23 329.026Q221.58 328.657 222.137 328.484Q222.676 328.318 223.127 328.427Q223.301 328.47 223.458 328.547Q223.707 328.671 223.912 328.884Q224.142 329.12 224.3 329.47L220.753 330.568ZM231.774 330.78Q232.425 330.844 233.103 330.635Q233.646 330.467 234.087 330.155Q234.206 330.071 234.318 329.976Q234.638 329.707 234.862 329.373Q235.008 329.155 235.114 328.909L234.176 328.404Q234.075 328.641 233.922 328.838Q233.794 329.004 233.63 329.142Q233.272 329.44 232.78 329.592Q232.217 329.766 231.703 329.671Q231.681 329.667 231.659 329.663Q231.402 329.608 231.178 329.49Q230.941 329.365 230.741 329.168Q230.503 328.932 230.34 328.61L234.906 327.197Q234.885 327.003 234.854 326.858Q234.822 326.714 234.784 326.591Q234.546 325.82 234.048 325.296Q234.013 325.26 233.977 325.225Q233.662 324.913 233.285 324.722Q233.006 324.58 232.694 324.505Q232.614 324.486 232.533 324.472Q231.871 324.356 231.151 324.579Q230.513 324.776 230.041 325.171Q229.885 325.301 229.746 325.454Q229.486 325.738 229.306 326.066Q229.101 326.441 229 326.873Q228.961 327.043 228.942 327.214Q228.87 327.863 229.08 328.543Q229.298 329.248 229.744 329.752Q229.85 329.871 229.968 329.979Q230.26 330.244 230.598 330.424Q230.975 330.626 231.409 330.722Q231.591 330.762 231.774 330.78ZM230.057 327.689Q230.016 327.355 230.074 327.053Q230.127 326.771 230.256 326.53Q230.363 326.33 230.523 326.159Q230.529 326.153 230.535 326.147Q230.885 325.778 231.442 325.605Q231.981 325.439 232.432 325.549Q232.606 325.591 232.763 325.668Q233.012 325.792 233.217 326.005Q233.447 326.241 233.605 326.591L230.057 327.689ZM238.377 328.752Q239 328.81 239.647 328.61Q240.195 328.44 240.632 328.118Q240.732 328.044 240.826 327.963Q241.163 327.67 241.391 327.308Q241.504 327.128 241.59 326.932L240.638 326.422Q240.539 326.64 240.396 326.824Q240.274 326.982 240.12 327.114Q239.784 327.398 239.317 327.543Q238.865 327.683 238.441 327.625Q238.347 327.612 238.254 327.589Q238.016 327.531 237.806 327.42Q237.567 327.294 237.363 327.1Q237.361 327.097 237.358 327.094Q236.979 326.728 236.802 326.154Q236.626 325.586 236.73 325.075Q236.732 325.068 236.733 325.062Q236.795 324.765 236.936 324.512Q237.042 324.322 237.192 324.158Q237.245 324.1 237.302 324.047Q237.628 323.747 238.097 323.602Q238.565 323.457 239.002 323.503Q239.227 323.526 239.434 323.6Q239.63 323.67 239.809 323.785L240.318 322.82Q240.005 322.627 239.664 322.518Q239.388 322.43 239.094 322.397Q239.036 322.391 238.978 322.386Q238.381 322.342 237.766 322.532Q237.111 322.735 236.625 323.141Q236.473 323.267 236.338 323.414Q236.044 323.731 235.851 324.101Q235.671 324.446 235.58 324.837Q235.541 325.007 235.522 325.179Q235.449 325.827 235.66 326.507Q235.846 327.11 236.211 327.574Q236.359 327.762 236.536 327.927Q236.839 328.207 237.192 328.395Q237.554 328.589 237.969 328.686Q238.172 328.733 238.377 328.752ZM247.468 322.41L248.497 325.737L247.391 326.079L245.587 320.247L246.692 319.905L246.903 320.586Q246.928 320.5 246.959 320.417Q247.059 320.15 247.228 319.938Q247.582 319.495 248.237 319.292Q248.68 319.155 249.082 319.202Q249.486 319.244 249.905 319.505L249.411 320.476Q249.168 320.338 248.92 320.322Q248.671 320.304 248.378 320.395Q247.966 320.522 247.708 320.795Q247.582 320.93 247.492 321.099Q247.221 321.613 247.468 322.41ZM256.495 323.146Q257.118 323.204 257.766 323.004Q258.314 322.834 258.751 322.512Q258.851 322.438 258.945 322.357Q259.282 322.064 259.51 321.702Q259.623 321.522 259.709 321.325L258.757 320.816Q258.658 321.034 258.515 321.218Q258.393 321.376 258.239 321.508Q257.903 321.792 257.435 321.937Q256.984 322.077 256.56 322.019Q256.466 322.006 256.373 321.983Q256.135 321.925 255.925 321.814Q255.686 321.688 255.482 321.494Q255.48 321.491 255.477 321.488Q255.098 321.122 254.92 320.548Q254.745 319.98 254.849 319.469Q254.85 319.462 254.852 319.456Q254.914 319.159 255.055 318.906Q255.161 318.716 255.311 318.552Q255.364 318.494 255.421 318.441Q255.747 318.141 256.216 317.996Q256.684 317.851 257.121 317.897Q257.346 317.92 257.553 317.994Q257.748 318.064 257.928 318.179L258.437 317.214Q258.123 317.021 257.783 316.912Q257.507 316.824 257.213 316.791Q257.155 316.785 257.097 316.78Q256.5 316.736 255.885 316.926Q255.23 317.129 254.744 317.535Q254.592 317.661 254.457 317.808Q254.162 318.125 253.97 318.495Q253.79 318.84 253.699 319.231Q253.66 319.401 253.641 319.573Q253.568 320.221 253.779 320.901Q253.965 321.504 254.33 321.968Q254.478 322.156 254.655 322.321Q254.958 322.601 255.311 322.789Q255.673 322.983 256.088 323.08Q256.29 323.127 256.495 323.146ZM264.544 320.766Q265.021 320.759 265.513 320.607Q266.496 320.303 266.929 319.643Q267.098 319.387 267.163 319.107Q267.266 318.665 267.111 318.162Q266.944 317.622 266.614 317.363Q266.461 317.242 266.289 317.158Q266.09 317.062 265.866 317.017Q265.808 317.004 265.749 316.994Q265.391 316.929 265.02 316.934Q264.591 316.938 264.194 316.94Q263.8 316.94 263.529 316.85Q263.421 316.814 263.341 316.745Q263.221 316.641 263.166 316.463Q263.123 316.324 263.146 316.196Q263.171 316.054 263.276 315.926Q263.476 315.681 263.956 315.532Q264.408 315.392 264.825 315.454Q265.029 315.483 265.215 315.556Q265.409 315.631 265.584 315.754L266.078 314.823Q265.813 314.624 265.516 314.509Q265.259 314.41 264.977 314.376Q264.369 314.301 263.68 314.514Q263.03 314.716 262.633 315.068Q262.331 315.338 262.179 315.676Q262.133 315.778 262.101 315.886Q262.082 315.951 262.069 316.017Q261.986 316.426 262.126 316.88Q262.29 317.407 262.614 317.659Q262.734 317.75 262.866 317.818Q263.092 317.934 263.354 317.981Q263.767 318.054 264.202 318.047Q264.636 318.041 265.029 318.047Q265.422 318.054 265.702 318.161Q265.804 318.2 265.883 318.267Q266.02 318.384 266.083 318.588Q266.127 318.73 266.106 318.861Q266.081 319.025 265.955 319.173Q265.728 319.437 265.213 319.596Q264.698 319.756 264.219 319.697Q264.194 319.693 264.169 319.689Q263.72 319.618 263.304 319.34L262.812 320.274Q262.873 320.314 262.937 320.352Q263.257 320.541 263.626 320.645Q263.687 320.663 263.748 320.677Q264.134 320.77 264.544 320.766ZM270.293 318.877Q270.916 318.935 271.563 318.735Q272.112 318.565 272.548 318.243Q272.648 318.169 272.742 318.088Q273.08 317.795 273.308 317.433Q273.421 317.253 273.507 317.056L272.555 316.547Q272.456 316.765 272.313 316.949Q272.191 317.106 272.036 317.239Q271.701 317.523 271.233 317.668Q270.782 317.808 270.358 317.75Q270.264 317.737 270.171 317.714Q269.933 317.656 269.723 317.545Q269.484 317.419 269.28 317.225L269.275 317.219Q268.896 316.853 268.718 316.279Q268.542 315.71 268.647 315.2Q268.648 315.193 268.65 315.187Q268.712 314.89 268.853 314.637Q268.959 314.447 269.109 314.283Q269.162 314.225 269.219 314.172Q269.545 313.872 270.014 313.727Q270.482 313.582 270.919 313.627Q271.144 313.651 271.351 313.725Q271.546 313.795 271.726 313.91L272.235 312.945Q271.921 312.751 271.581 312.643Q271.305 312.555 271.011 312.522Q270.953 312.516 270.895 312.511Q270.298 312.467 269.683 312.657Q269.027 312.86 268.542 313.266Q268.39 313.392 268.255 313.539Q267.96 313.856 267.768 314.226Q267.588 314.571 267.497 314.962Q267.458 315.132 267.438 315.303Q267.366 315.952 267.576 316.632Q267.763 317.235 268.128 317.699Q268.275 317.887 268.453 318.052Q268.756 318.332 269.108 318.52Q269.471 318.714 269.886 318.811Q270.088 318.858 270.293 318.877ZM276.158 317.05Q276.793 317.117 277.456 316.912Q278.052 316.727 278.51 316.367Q278.703 316.214 278.871 316.031Q279.163 315.713 279.356 315.343Q279.539 314.992 279.632 314.593Q279.68 314.382 279.699 314.169Q279.753 313.552 279.555 312.913Q279.365 312.3 278.99 311.837Q278.846 311.659 278.676 311.503Q278.381 311.236 278.041 311.054Q277.668 310.855 277.24 310.759Q277.005 310.705 276.767 310.688Q276.179 310.647 275.575 310.834Q274.92 311.036 274.439 311.444Q274.289 311.572 274.155 311.72Q273.864 312.04 273.671 312.411Q273.492 312.755 273.397 313.143Q273.347 313.351 273.327 313.562Q273.27 314.168 273.465 314.797Q273.663 315.436 274.055 315.915Q274.191 316.081 274.351 316.227Q274.682 316.529 275.068 316.725Q275.405 316.896 275.784 316.986Q275.97 317.03 276.158 317.05ZM283.106 314.9Q283.741 314.967 284.404 314.762Q285 314.577 285.458 314.217Q285.651 314.064 285.819 313.881Q286.111 313.563 286.304 313.194Q286.487 312.842 286.58 312.444Q286.628 312.233 286.647 312.019Q286.701 311.402 286.503 310.763Q286.313 310.15 285.938 309.687Q285.795 309.509 285.624 309.354Q285.329 309.086 284.989 308.904Q284.616 308.705 284.188 308.609Q283.953 308.555 283.716 308.539Q283.127 308.497 282.523 308.684Q281.868 308.887 281.387 309.295Q281.237 309.422 281.103 309.57Q280.812 309.89 280.619 310.261Q280.44 310.605 280.345 310.994Q280.295 311.201 280.275 311.412Q280.218 312.018 280.413 312.647Q280.611 313.286 281.004 313.765Q281.14 313.931 281.299 314.077Q281.63 314.379 282.016 314.575Q282.353 314.746 282.732 314.836Q282.918 314.88 283.106 314.9ZM294.208 311.463Q294.859 311.527 295.537 311.317Q296.08 311.149 296.521 310.838Q296.64 310.754 296.752 310.659Q297.072 310.389 297.296 310.055Q297.442 309.837 297.548 309.592L296.61 309.087Q296.509 309.324 296.356 309.521Q296.228 309.687 296.063 309.824Q295.706 310.122 295.214 310.274Q294.651 310.449 294.137 310.354Q294.115 310.35 294.093 310.345Q293.836 310.291 293.612 310.173Q293.375 310.048 293.175 309.851Q292.937 309.615 292.773 309.292L297.34 307.879Q297.319 307.686 297.288 307.541Q297.256 307.396 297.218 307.274Q296.98 306.503 296.482 305.979Q296.447 305.943 296.411 305.908Q296.096 305.595 295.719 305.404Q295.44 305.263 295.128 305.188Q295.048 305.169 294.967 305.155Q294.305 305.039 293.584 305.262Q292.947 305.459 292.475 305.854Q292.319 305.984 292.18 306.136Q291.92 306.421 291.74 306.749Q291.535 307.124 291.434 307.556Q291.395 307.725 291.376 307.897Q291.303 308.546 291.514 309.226Q291.732 309.931 292.178 310.435Q292.284 310.554 292.402 310.662Q292.694 310.926 293.032 311.107Q293.409 311.308 293.843 311.405Q294.025 311.445 294.208 311.463ZM292.491 308.372Q292.45 308.038 292.508 307.736Q292.561 307.454 292.69 307.212Q292.797 307.013 292.957 306.842Q292.963 306.835 292.969 306.829Q293.319 306.46 293.876 306.288Q294.415 306.121 294.866 306.231Q295.04 306.274 295.197 306.351Q295.446 306.475 295.651 306.688Q295.881 306.924 296.039 307.274L292.491 308.372ZM299.455 306.325L300.484 309.652L299.378 309.994L297.574 304.162L298.68 303.82L298.89 304.501Q298.915 304.415 298.947 304.332Q299.047 304.065 299.216 303.853Q299.569 303.41 300.224 303.207Q300.668 303.07 301.07 303.117Q301.474 303.159 301.893 303.42L301.398 304.391Q301.155 304.253 300.907 304.237Q300.659 304.219 300.365 304.31Q299.953 304.437 299.696 304.71Q299.569 304.844 299.479 305.014Q299.208 305.528 299.455 306.325ZM250.521 318.72L252.326 324.552L253.431 324.21L251.627 318.378L250.521 318.72ZM207.868 337.048Q207.544 337.4 207.015 337.564Q206.563 337.703 206.139 337.646Q206.045 337.633 205.952 337.61Q205.722 337.554 205.519 337.446Q205.272 337.317 205.066 337.113Q204.687 336.737 204.504 336.147Q204.326 335.571 204.428 335.051Q204.488 334.734 204.637 334.468Q204.735 334.292 204.871 334.138Q204.925 334.078 204.984 334.022Q205.303 333.722 205.768 333.578Q206.271 333.423 206.727 333.511Q206.771 333.52 206.814 333.531Q207.02 333.581 207.204 333.676Q207.463 333.81 207.676 334.033Q208.042 334.409 208.227 335.008Q208.436 335.684 208.285 336.267Q208.241 336.435 208.167 336.596Q208.049 336.851 207.868 337.048ZM277.902 315.409Q277.584 315.703 277.126 315.845Q276.674 315.984 276.25 315.927Q276.156 315.914 276.063 315.891Q275.844 315.837 275.649 315.738Q275.39 315.607 275.171 315.396Q275.158 315.384 275.146 315.372Q274.78 315.004 274.607 314.444Q274.447 313.927 274.526 313.45Q274.533 313.406 274.542 313.364Q274.604 313.066 274.745 312.814Q274.851 312.624 275.001 312.46Q275.054 312.402 275.112 312.349Q275.437 312.049 275.906 311.904Q276.396 311.752 276.846 311.831Q276.902 311.841 276.958 311.854Q277.151 311.9 277.327 311.982Q277.611 312.114 277.851 312.34Q277.896 312.383 277.939 312.428Q278.259 312.769 278.413 313.266Q278.586 313.826 278.492 314.336Q278.489 314.353 278.485 314.37Q278.426 314.658 278.293 314.906Q278.184 315.108 278.026 315.284Q277.967 315.35 277.902 315.409ZM284.85 313.26Q284.532 313.553 284.074 313.695Q283.622 313.835 283.198 313.777Q283.104 313.764 283.011 313.741Q282.792 313.688 282.597 313.589Q282.338 313.457 282.119 313.246Q282.106 313.234 282.094 313.222Q281.728 312.854 281.555 312.294Q281.395 311.777 281.474 311.3Q281.481 311.257 281.49 311.214Q281.552 310.917 281.693 310.664Q281.799 310.474 281.949 310.31Q282.002 310.252 282.06 310.199Q282.385 309.899 282.854 309.754Q283.344 309.602 283.794 309.681Q283.85 309.691 283.906 309.704Q284.099 309.75 284.275 309.833Q284.559 309.965 284.799 310.19Q284.844 310.233 284.887 310.278Q285.207 310.619 285.361 311.116Q285.534 311.676 285.44 312.187Q285.437 312.203 285.433 312.22Q285.374 312.508 285.241 312.756Q285.132 312.958 284.974 313.134Q284.915 313.2 284.85 313.26Z" fill="#B9B9B9" fill-opacity="1.000000" fill-rule="evenodd"/>
		<path id="Vector 312" d="M265.786 105.083L268.318 113.267" stroke="#E4E4E4" stroke-opacity="1.000000" stroke-width="1.606226" stroke-linejoin="round" stroke-linecap="round"/>
		<path id="Vector 313" d="M262.96 110.441L271.144 107.909" stroke="#E4E4E4" stroke-opacity="1.000000" stroke-width="1.606226" stroke-linejoin="round" stroke-linecap="round"/>
	</g>
	<g opacity="0.700000">
		<g clip-path="url(#clip1_8398)">
			<g clip-path="url(#clip28_756)">
				<path id="Vector" d="M355.355 125.654C355.359 126.153 355.207 126.642 354.92 127.052C354.633 127.461 354.226 127.771 353.756 127.939L344.021 131.473L340.486 141.208C340.313 141.674 340.001 142.077 339.593 142.361C339.184 142.645 338.699 142.797 338.201 142.797C337.704 142.797 337.218 142.645 336.81 142.361C336.401 142.077 336.089 141.674 335.916 141.208L332.382 131.473L322.647 127.939C322.18 127.766 321.778 127.454 321.494 127.045C321.21 126.637 321.058 126.151 321.058 125.654C321.058 125.156 321.21 124.67 321.494 124.262C321.778 123.853 322.18 123.542 322.647 123.368L332.382 119.834L335.916 110.099C336.089 109.633 336.401 109.231 336.81 108.946C337.218 108.662 337.704 108.51 338.201 108.51C338.699 108.51 339.184 108.662 339.593 108.946C340.001 109.231 340.313 109.633 340.486 110.099L344.021 119.834L353.756 123.368C354.226 123.536 354.633 123.846 354.92 124.256C355.207 124.665 355.359 125.154 355.355 125.654Z" fill="#FFAA4C" fill-opacity="1.000000" fill-rule="nonzero"/>
			</g>
		</g>
	</g>
	<g opacity="0.700000">
		<g clip-path="url(#clip1_8399)">
			<g clip-path="url(#clip28_760)">
				<path id="Vector" d="M375.197 90.6536C375.199 90.974 375.102 91.2872 374.918 91.5497C374.735 91.8122 374.474 92.0109 374.172 92.1184L367.932 94.384L365.666 100.624C365.555 100.923 365.355 101.181 365.093 101.363C364.832 101.545 364.52 101.643 364.201 101.643C363.882 101.643 363.571 101.545 363.309 101.363C363.047 101.181 362.847 100.923 362.736 100.624L360.471 94.384L354.23 92.1184C353.931 92.0074 353.674 91.8076 353.491 91.5457C353.309 91.2838 353.212 90.9725 353.212 90.6536C353.212 90.3346 353.309 90.0233 353.491 89.7614C353.674 89.4996 353.931 89.2997 354.23 89.1887L360.471 86.9231L362.736 80.6829C362.847 80.3839 363.047 80.1259 363.309 79.9438C363.571 79.7617 363.882 79.6641 364.201 79.6641C364.52 79.6641 364.832 79.7617 365.093 79.9438C365.355 80.1259 365.555 80.3839 365.666 80.6829L367.932 86.9231L374.172 89.1887C374.474 89.2962 374.735 89.495 374.918 89.7575C375.102 90.02 375.199 90.3332 375.197 90.6536Z" fill="#FFAA4C" fill-opacity="1.000000" fill-rule="nonzero"/>
			</g>
		</g>
	</g>
</svg>
