<svg width="1023.677002" height="96.468750" viewBox="0 0 1023.68 96.4688" fill="none" fill-rule="evenodd" clip-rule="evenodd"	 xmlns="http://www.w3.org/2000/svg" xmlns:xlink="http://www.w3.org/1999/xlink">
	<desc>
			Created with Pixso.
	</desc>
	<defs/>
	<path id="How Budss Works" d="M1 93.9375L1 3.5625L21.0938 3.5625L21.0938 93.9375L1 93.9375ZM56.9062 93.9375L56.9062 3.5625L77.1562 3.5625L77.1562 93.9375L56.9062 93.9375ZM13.0312 56.1875L13.0312 38.7812L63.5625 38.7812L63.5625 56.1875L13.0312 56.1875ZM122.596 95.3438Q112.971 95.3438 105.221 91.0625Q97.5025 86.7812 93.0025 79.3438Q88.5338 71.9062 88.5338 62.7188Q88.5338 53.5 93.0025 46.2188Q97.5025 38.9062 105.159 34.625Q112.846 30.3125 122.596 30.3125Q132.315 30.3125 139.971 34.5625Q147.659 38.7812 152.128 46.1562Q156.628 53.5 156.628 62.7188Q156.628 71.9062 152.128 79.3438Q147.659 86.7812 139.971 91.0625Q132.315 95.3438 122.596 95.3438ZM122.596 77.5625Q126.815 77.5625 130.003 75.7188Q133.221 73.8438 134.94 70.4688Q136.659 67.0625 136.659 62.7188Q136.659 58.3438 134.878 55.0938Q133.096 51.8125 129.94 49.9688Q126.815 48.125 122.596 48.125Q118.503 48.125 115.284 49.9688Q112.096 51.8125 110.284 55.1562Q108.503 58.4688 108.503 62.8438Q108.503 67.0625 110.284 70.4688Q112.096 73.8438 115.284 75.7188Q118.503 77.5625 122.596 77.5625ZM180.326 93.9375L158.794 31.7188L178.013 31.7188L191.326 76.9062L185.701 77.0312L200.419 31.7188L216.294 31.7188L231.138 77.0312L225.357 76.9062L238.794 31.7188L258.013 31.7188L236.513 93.9375L220.513 93.9375L206.044 50.9375L210.919 50.9375L196.201 93.9375L180.326 93.9375ZM307.032 93.9375L307.032 78.3125L328.282 78.3125Q334.157 78.3125 337.469 74.875Q340.813 71.4062 340.813 66.4062Q340.813 62.9688 339.282 60.2812Q337.751 57.5938 335.001 56.0625Q332.251 54.5 328.282 54.5L307.032 54.5L307.032 39.2812L326.626 39.2812Q331.594 39.2812 334.657 36.7812Q337.751 34.2812 337.751 29.1562Q337.751 24.1875 334.657 21.6875Q331.594 19.1875 326.626 19.1875L307.032 19.1875L307.032 3.5625L330.469 3.5625Q339.157 3.5625 345.219 6.78125Q351.313 9.96875 354.501 15.3438Q357.719 20.7188 357.719 27.25Q357.719 35.5625 352.344 41.3438Q346.969 47.0938 336.469 49.25L337.001 42.4688Q348.376 44.6562 354.563 51.3125Q360.782 57.9688 360.782 67.6875Q360.782 75.125 357.126 81.0938Q353.501 87.0312 346.657 90.5Q339.813 93.9375 330.188 93.9375L307.032 93.9375ZM291.688 93.9375L291.688 3.5625L311.501 3.5625L311.501 93.9375L291.688 93.9375ZM399.58 95.3438Q390.986 95.3438 384.392 91.8438Q377.83 88.3125 374.111 82.0938Q370.392 75.875 370.392 67.8125L370.392 31.7188L389.986 31.7188L389.986 67.5625Q389.986 70.7812 391.049 73.0938Q392.142 75.375 394.33 76.6562Q396.517 77.9375 399.58 77.9375Q403.924 77.9375 406.486 75.1875Q409.049 72.4375 409.049 67.5625L409.049 31.7188L428.642 31.7188L428.642 67.6875Q428.642 75.875 424.924 82.0938Q421.205 88.3125 414.674 91.8438Q408.142 95.3438 399.58 95.3438ZM467.416 95.2188Q458.572 95.2188 451.728 91Q444.884 86.7812 440.978 79.5Q437.072 72.1875 437.072 62.8438Q437.072 53.5 440.978 46.2188Q444.884 38.9062 451.728 34.6875Q458.572 30.4375 467.416 30.4375Q473.822 30.4375 479.009 32.875Q484.197 35.3125 487.572 39.5938Q490.978 43.875 491.353 49.4062L491.353 75.625Q490.978 81.125 487.634 85.5625Q484.322 89.9688 479.072 92.5938Q473.822 95.2188 467.416 95.2188ZM470.884 77.5625Q475.103 77.5625 478.166 75.7188Q481.228 73.8438 483.009 70.5312Q484.822 67.1875 484.822 62.8438Q484.822 58.4688 483.103 55.2188Q481.384 51.9688 478.228 50.0625Q475.103 48.125 471.009 48.125Q466.916 48.125 463.759 50.0625Q460.634 51.9688 458.759 55.3125Q456.916 58.625 456.916 62.8438Q456.916 67.0625 458.697 70.4062Q460.509 73.7188 463.697 75.6562Q466.916 77.5625 470.884 77.5625ZM503.259 93.9375L484.072 93.9375L484.072 77.1562L487.009 62.0625L483.666 46.9688L483.666 1L503.259 1L503.259 93.9375ZM539.732 95.4688Q534.232 95.4688 528.919 94.0625Q523.607 92.6562 519.044 90.0312Q514.513 87.4062 511.326 83.9688L522.451 72.6875Q525.544 76.0312 529.763 77.875Q533.982 79.7188 538.982 79.7188Q542.419 79.7188 544.263 78.7188Q546.138 77.6875 546.138 75.875Q546.138 73.5938 543.888 72.375Q541.669 71.1562 538.201 70.1875Q534.732 69.2188 530.888 68.0938Q527.076 66.9375 523.607 64.9062Q520.138 62.8438 517.951 59.1875Q515.794 55.5312 515.794 49.9062Q515.794 43.875 518.857 39.4688Q521.951 35.0625 527.576 32.5Q533.201 29.9375 540.763 29.9375Q548.701 29.9375 555.419 32.6875Q562.138 35.4375 566.357 40.8125L555.232 52.0938Q552.294 48.625 548.638 47.2188Q544.982 45.8125 541.544 45.8125Q538.201 45.8125 536.544 46.7812Q534.888 47.7188 534.888 49.5312Q534.888 51.4375 537.044 52.5938Q539.232 53.75 542.669 54.6562Q546.138 55.5312 549.982 56.8125Q553.826 58.0938 557.263 60.2812Q560.732 62.4375 562.888 66.0938Q565.076 69.75 565.076 75.625Q565.076 84.7188 558.232 90.0938Q551.388 95.4688 539.732 95.4688ZM598.356 95.4688Q592.856 95.4688 587.543 94.0625Q582.231 92.6562 577.668 90.0312Q573.137 87.4062 569.95 83.9688L581.075 72.6875Q584.168 76.0312 588.387 77.875Q592.606 79.7188 597.606 79.7188Q601.043 79.7188 602.887 78.7188Q604.762 77.6875 604.762 75.875Q604.762 73.5938 602.512 72.375Q600.293 71.1562 596.825 70.1875Q593.356 69.2188 589.512 68.0938Q585.7 66.9375 582.231 64.9062Q578.762 62.8438 576.575 59.1875Q574.418 55.5312 574.418 49.9062Q574.418 43.875 577.481 39.4688Q580.575 35.0625 586.2 32.5Q591.825 29.9375 599.387 29.9375Q607.325 29.9375 614.043 32.6875Q620.762 35.4375 624.981 40.8125L613.856 52.0938Q610.918 48.625 607.262 47.2188Q603.606 45.8125 600.168 45.8125Q596.825 45.8125 595.168 46.7812Q593.512 47.7188 593.512 49.5312Q593.512 51.4375 595.668 52.5938Q597.856 53.75 601.293 54.6562Q604.762 55.5312 608.606 56.8125Q612.45 58.0938 615.887 60.2812Q619.356 62.4375 621.512 66.0938Q623.7 69.75 623.7 75.625Q623.7 84.7188 616.856 90.0938Q610.012 95.4688 598.356 95.4688ZM682.956 93.9375L653.925 3.5625L673.894 3.5625L695.144 73.0625L687.331 73.0625L708.05 3.5625L723.8 3.5625L744.55 73.0625L736.862 73.0625L757.987 3.5625L777.831 3.5625L748.769 93.9375L733.019 93.9375L712.144 24.4375L719.581 24.4375L698.706 93.9375L682.956 93.9375ZM808.804 95.3438Q799.179 95.3438 791.429 91.0625Q783.711 86.7812 779.211 79.3438Q774.742 71.9062 774.742 62.7188Q774.742 53.5 779.211 46.2188Q783.711 38.9062 791.367 34.625Q799.054 30.3125 808.804 30.3125Q818.523 30.3125 826.179 34.5625Q833.867 38.7812 838.336 46.1562Q842.836 53.5 842.836 62.7188Q842.836 71.9062 838.336 79.3438Q833.867 86.7812 826.179 91.0625Q818.523 95.3438 808.804 95.3438ZM808.804 77.5625Q813.023 77.5625 816.211 75.7188Q819.429 73.8438 821.148 70.4688Q822.867 67.0625 822.867 62.7188Q822.867 58.3438 821.086 55.0938Q819.304 51.8125 816.148 49.9688Q813.023 48.125 808.804 48.125Q804.711 48.125 801.492 49.9688Q798.304 51.8125 796.492 55.1562Q794.711 58.4688 794.711 62.8438Q794.711 67.0625 796.492 70.4688Q798.304 73.8438 801.492 75.7188Q804.711 77.5625 808.804 77.5625ZM852.564 93.9375L852.564 31.7188L872.157 31.7188L872.157 93.9375L852.564 93.9375ZM872.157 59.75L863.97 53.375Q866.407 42.4688 872.157 36.4688Q877.907 30.4375 888.157 30.4375Q892.626 30.4375 896.001 31.7812Q899.407 33.125 901.97 35.9688L890.345 50.6875Q889.064 49.25 887.126 48.5Q885.22 47.7188 882.782 47.7188Q877.907 47.7188 875.032 50.75Q872.157 53.75 872.157 59.75ZM946.904 93.9375L925.154 61.6875L946.779 31.7188L968.654 31.7188L942.56 65.4062L943.185 57.3438L969.935 93.9375L946.904 93.9375ZM907.092 93.9375L907.092 1L926.685 1L926.685 93.9375L907.092 93.9375ZM996.052 95.4688Q990.552 95.4688 985.239 94.0625Q979.927 92.6562 975.364 90.0312Q970.833 87.4062 967.646 83.9688L978.771 72.6875Q981.864 76.0312 986.083 77.875Q990.302 79.7188 995.302 79.7188Q998.739 79.7188 1000.58 78.7188Q1002.46 77.6875 1002.46 75.875Q1002.46 73.5938 1000.21 72.375Q997.989 71.1562 994.521 70.1875Q991.052 69.2188 987.208 68.0938Q983.396 66.9375 979.927 64.9062Q976.458 62.8438 974.271 59.1875Q972.114 55.5312 972.114 49.9062Q972.114 43.875 975.177 39.4688Q978.271 35.0625 983.896 32.5Q989.521 29.9375 997.083 29.9375Q1005.02 29.9375 1011.74 32.6875Q1018.46 35.4375 1022.68 40.8125L1011.55 52.0938Q1008.61 48.625 1004.96 47.2188Q1001.3 45.8125 997.864 45.8125Q994.521 45.8125 992.864 46.7812Q991.208 47.7188 991.208 49.5312Q991.208 51.4375 993.364 52.5938Q995.552 53.75 998.989 54.6562Q1002.46 55.5312 1006.3 56.8125Q1010.15 58.0938 1013.58 60.2812Q1017.05 62.4375 1019.21 66.0938Q1021.4 69.75 1021.4 75.625Q1021.4 84.7188 1014.55 90.0938Q1007.71 95.4688 996.052 95.4688Z" stroke="#444444" stroke-opacity="1.000000" stroke-width="1.000000" />
</svg>
