<svg width="23.000000" height="23.000000" viewBox="0 0 23 23" fill="none" xmlns="http://www.w3.org/2000/svg" xmlns:xlink="http://www.w3.org/1999/xlink">
	<desc>
			Created with Pixso.
	</desc>
	<defs/>
	<path id="Vector" d="M0.89 1.12C0.64 1.37 0.5 1.78 0.5 2.3L0.5 20.84C0.5 21.36 0.64 21.76 0.89 22.02L0.96 22.07L11.61 11.69L11.61 11.44L0.96 1.06L0.89 1.12Z" fill="#FFFFFF" fill-opacity="1.000000" fill-rule="nonzero"/>
	<path id="Vector" d="M16.45 15.15L12.9 11.69L12.9 11.44L16.46 7.98L16.54 8.02L20.74 10.36C21.94 11.02 21.94 12.11 20.74 12.78L16.54 15.11L16.45 15.15Z" fill="#FFFFFF" fill-opacity="1.000000" fill-rule="nonzero"/>
	<path id="Vector" d="M15.89 15.75L12.26 12.21L1.54 22.66C1.94 23.07 2.59 23.12 3.33 22.71L15.89 15.75Z" fill="#FFFFFF" fill-opacity="1.000000" fill-rule="nonzero"/>
	<path id="Vector" d="M15.89 7.38L3.33 0.42C2.59 0.01 1.94 0.06 1.54 0.47L12.26 10.92L15.89 7.38Z" fill="#FFFFFF" fill-opacity="1.000000" fill-rule="nonzero"/>
</svg>
