<svg width="24.000000" height="23.000000" viewBox="0 0 24 23" fill="none" xmlns="http://www.w3.org/2000/svg" xmlns:xlink="http://www.w3.org/1999/xlink">
	<desc>
			Created with Pixso.
	</desc>
	<defs/>
	<path id="Vector" d="M15.63 0C15.78 1.36 15.24 2.7 14.44 3.68C13.6 4.65 12.26 5.39 10.96 5.3C10.79 3.99 11.45 2.6 12.19 1.75C13.02 0.78 14.47 0.05 15.63 0ZM19.89 7.84C19.74 7.93 17.34 9.34 17.36 12.23C17.39 15.71 20.46 16.86 20.5 16.87C20.48 16.95 20.02 18.53 18.87 20.14C17.91 21.55 16.9 22.93 15.31 22.96C14.55 22.98 14.03 22.76 13.5 22.54C12.94 22.3 12.36 22.06 11.45 22.06C9.66 22.06 9.1 22.93 7.62 22.99C6.1 23.05 4.93 21.49 3.94 20.09C1.95 17.23 0.41 12.03 2.48 8.49C3.49 6.76 5.32 5.64 7.28 5.61C8.14 5.59 8.97 5.92 9.69 6.21C10.25 6.43 10.74 6.62 11.15 6.62C11.5 6.62 11.98 6.44 12.54 6.22C13.43 5.87 14.51 5.45 15.61 5.56C16.36 5.58 18.51 5.86 19.89 7.84L19.89 7.84Z" fill="#FFFFFF" fill-opacity="1.000000" fill-rule="evenodd"/>
</svg>
