<svg width="125.091309" height="41.255127" viewBox="0 0 125.091 41.2551" fill="none" xmlns="http://www.w3.org/2000/svg" xmlns:xlink="http://www.w3.org/1999/xlink">
	<desc>
			Created with Pixso.
	</desc>
	<defs/>
	<rect id="Frame 1" width="114.033203" height="27.961790" transform="translate(11.058105 6.646484)" fill="#FFFFFF" fill-opacity="0"/>
	<path id="budss" d="M48.5822 31.9954Q47.043 31.9954 45.8 31.345Q44.5571 30.6946 43.8127 29.5672Q43.0756 28.4399 43.0178 27.0524L43.0178 21.9577Q43.0756 20.5702 43.8272 19.4645Q44.586 18.3516 45.8289 17.7301Q47.0719 17.1086 48.5822 17.1086Q50.5696 17.1086 52.1377 18.0842Q53.7059 19.0598 54.6092 20.7508Q55.5125 22.4346 55.5125 24.5665Q55.5125 26.6694 54.6092 28.3604Q53.7059 30.0442 52.1377 31.0198Q50.5696 31.9954 48.5822 31.9954ZM40.6547 31.6991L40.6547 10.3012L44.5281 10.3012L44.5281 20.9243L43.8778 24.3569L44.4992 27.8545L44.4992 31.6991L40.6547 31.6991ZM47.9319 28.411Q49.0014 28.411 49.8108 27.9268Q50.6274 27.4354 51.0826 26.5682Q51.5451 25.6938 51.5451 24.5376Q51.5451 23.4102 51.0826 22.5358Q50.6274 21.6614 49.7963 21.1772Q48.9725 20.6858 47.903 20.6858Q46.8406 20.6858 46.024 21.1772Q45.2074 21.6614 44.7449 22.5358Q44.2897 23.4102 44.2897 24.5376Q44.2897 25.6938 44.7449 26.5682Q45.2074 27.4354 46.0385 27.9268Q46.8696 28.411 47.9319 28.411ZM64.1515 31.9954Q62.2581 31.9954 60.7912 31.2004Q59.3314 30.3983 58.5003 28.9819Q57.6693 27.5583 57.6693 25.6938L57.6693 17.4049L61.5788 17.4049L61.5788 25.5999Q61.5788 26.4887 61.8751 27.1247Q62.1714 27.7606 62.764 28.0858Q63.3566 28.411 64.1515 28.411Q65.3656 28.411 66.0449 27.6739Q66.7314 26.9368 66.7314 25.5999L66.7314 17.4049L70.6048 17.4049L70.6048 25.6938Q70.6048 27.5872 69.7882 29.0108Q68.9789 30.4272 67.5119 31.2149Q66.0449 31.9954 64.1515 31.9954ZM79.7225 31.9954Q77.7424 31.9954 76.1742 31.0198Q74.6061 30.0442 73.7028 28.3604Q72.7994 26.6694 72.7994 24.5665Q72.7994 22.4346 73.7028 20.7508Q74.6061 19.0598 76.1598 18.0842Q77.7135 17.1086 79.7225 17.1086Q81.2617 17.1086 82.4903 17.7301Q83.7188 18.3516 84.4703 19.4645Q85.2291 20.5702 85.2869 21.9577L85.2869 27.0524Q85.2291 28.4399 84.4848 29.5672Q83.7477 30.6946 82.5047 31.345Q81.2617 31.9954 79.7225 31.9954ZM80.3729 28.411Q81.4713 28.411 82.2807 27.9268Q83.0973 27.4354 83.5526 26.5682Q84.0151 25.6938 84.0151 24.5376Q84.0151 23.4102 83.5526 22.5358Q83.0973 21.6614 82.2807 21.1772Q81.4713 20.6858 80.4018 20.6858Q79.3106 20.6858 78.494 21.1917Q77.6846 21.6975 77.2221 22.5575Q76.7668 23.4102 76.7668 24.5376Q76.7668 25.6938 77.2221 26.5682Q77.6846 27.4354 78.5084 27.9268Q79.3395 28.411 80.3729 28.411ZM87.6573 31.6991L83.8055 31.6991L83.8055 27.8545L84.427 24.3569L83.7766 20.9243L83.7766 10.3012L87.6573 10.3012L87.6573 31.6991ZM96.0072 32.0243Q94.7931 32.0243 93.6224 31.6991Q92.4517 31.3739 91.4761 30.7958Q90.5005 30.2176 89.7851 29.3938L92.0976 27.0524Q92.8347 27.8835 93.8103 28.2954Q94.7931 28.7073 95.971 28.7073Q96.9177 28.7073 97.4091 28.4471Q97.9005 28.1797 97.9005 27.645Q97.9005 27.0524 97.3802 26.7272Q96.8599 26.402 96.0289 26.178Q95.205 25.954 94.3017 25.6794Q93.3984 25.3975 92.5673 24.9422Q91.7435 24.4797 91.2232 23.6631Q90.7029 22.8465 90.7029 21.5458Q90.7029 20.1872 91.3677 19.1827Q92.0398 18.171 93.2828 17.6073Q94.5257 17.0436 96.2095 17.0436Q97.9873 17.0436 99.4181 17.6723Q100.856 18.2938 101.803 19.5368L99.4687 21.871Q98.8183 21.076 98.0017 20.7219Q97.1851 20.3606 96.2384 20.3606Q95.3785 20.3606 94.9232 20.628Q94.4679 20.8954 94.4679 21.3651Q94.4679 21.8999 94.981 22.1961Q95.5013 22.4924 96.3251 22.7165Q97.1562 22.9405 98.0595 23.2223Q98.9628 23.4969 99.7722 24.0028Q100.589 24.5086 101.109 25.3397Q101.629 26.1635 101.629 27.4643Q101.629 29.5672 100.119 30.7958Q98.6087 32.0243 96.0072 32.0243ZM109.15 32.0243Q107.936 32.0243 106.765 31.6991Q105.594 31.3739 104.619 30.7958Q103.643 30.2176 102.927 29.3938L105.24 27.0524Q105.977 27.8835 106.953 28.2954Q107.936 28.7073 109.113 28.7073Q110.06 28.7073 110.552 28.4471Q111.043 28.1797 111.043 27.645Q111.043 27.0524 110.523 26.7272Q110.002 26.402 109.171 26.178Q108.347 25.954 107.444 25.6794Q106.541 25.3975 105.71 24.9422Q104.886 24.4797 104.366 23.6631Q103.845 22.8465 103.845 21.5458Q103.845 20.1872 104.51 19.1827Q105.182 18.171 106.425 17.6073Q107.668 17.0436 109.352 17.0436Q111.13 17.0436 112.561 17.6723Q113.999 18.2938 114.945 19.5368L112.611 21.871Q111.961 21.076 111.144 20.7219Q110.327 20.3606 109.381 20.3606Q108.521 20.3606 108.066 20.628Q107.61 20.8954 107.61 21.3651Q107.61 21.8999 108.123 22.1961Q108.644 22.4924 109.468 22.7165Q110.299 22.9405 111.202 23.2223Q112.105 23.4969 112.915 24.0028Q113.731 24.5086 114.252 25.3397Q114.772 26.1635 114.772 27.4643Q114.772 29.5672 113.261 30.7958Q111.751 32.0243 109.15 32.0243Z" fill="#FFFFFF" fill-opacity="1.000000" fill-rule="0"/>
	<rect id="Frame 2" width="41.466667" height="41.255100" fill="#FFFFFF" fill-opacity="0"/>
	<g opacity="0.700000">
		<path id="Vector 269" d="M20.3042 21.0024L17.7081 21.0376C14.6185 21.0793 12.0802 18.6086 12.0385 15.519C11.9967 12.4297 14.4674 9.89136 17.557 9.84961L30.3909 9.67627" stroke="#FFAA4C" stroke-opacity="1.000000" stroke-width="6.755297" stroke-linecap="round"/>
	</g>
	<g opacity="0.700000">
		<path id="Vector 270" d="M29.2567 32.322L16.4159 32.2874C13.3293 32.2791 10.8339 29.7703 10.8422 26.6836C10.8505 23.603 13.35 21.1016 16.4304 21.1099L20.405 21.1094" stroke="#2FDBBC" stroke-opacity="1.000000" stroke-width="6.755297" stroke-linecap="round"/>
	</g>
	<g opacity="0.700000">
		<path id="Vector 275" d="M29.339 32.2148L21.1406 22.2461C20.4012 21.3469 20.4487 20.0376 21.2513 19.1943L30.3325 9.6543" stroke="#A64CED" stroke-opacity="1.000000" stroke-width="6.755297" stroke-linecap="round"/>
	</g>
</svg>
