<svg width="124.000000" height="60.000000" viewBox="0 0 124 60" fill="none" xmlns="http://www.w3.org/2000/svg" xmlns:xlink="http://www.w3.org/1999/xlink">
	<desc>
			Created with Pixso.
	</desc>
	<defs/>
	<path id="Vector" d="M20.54 58.99C20.01 58.91 19.47 58.85 18.95 58.74C16.56 58.21 14.85 56.81 13.96 54.53C12.64 51.18 12.55 47.74 13.72 44.34C14.75 41.33 17.27 39.58 20.42 39.54C21.39 39.52 22.35 39.61 23.3 39.82C25.9 40.43 27.58 42.14 28.37 44.66C29.33 47.73 29.33 50.85 28.29 53.9C27.27 56.9 25.16 58.63 21.97 58.91C21.85 58.93 21.73 58.96 21.61 58.99L20.54 58.99ZM18.1 49.08C18.28 50.48 18.38 51.7 18.62 52.9C18.79 53.77 19.34 54.43 20.26 54.67C21.67 55.02 22.91 54.27 23.33 52.76C23.75 51.21 23.87 49.61 23.7 48.02C23.6 47.09 23.4 46.17 23.11 45.29C23 44.89 22.77 44.54 22.46 44.27C22.15 44 21.77 43.83 21.36 43.77C20.1 43.56 19.12 44.1 18.74 45.46C18.4 46.68 18.28 47.96 18.1 49.08Z" fill="#181818" fill-opacity="1.000000" fill-rule="nonzero"/>
	<path id="Vector" d="M123.85 58.45C122.03 58.46 120.22 58.48 118.4 58.48C116.89 58.49 115.39 58.48 113.84 58.48L113.84 40.07C113.96 40.05 114.08 40.03 114.2 40.03C117.27 40.03 120.35 40.03 123.43 40.03C123.57 40.04 123.71 40.05 123.85 40.08L123.85 43.99L118.8 43.99L118.8 47.37L123.08 47.37L123.08 51.19L118.79 51.19L118.79 54.54L123.85 54.54L123.85 58.45Z" fill="#181818" fill-opacity="1.000000" fill-rule="nonzero"/>
	<path id="Vector" d="M109.06 59C108.32 58.87 107.56 58.8 106.84 58.62C105.06 58.17 103.47 57.19 102.26 55.8C101.06 54.41 100.31 52.69 100.1 50.86C99.87 48.92 99.89 47 100.68 45.2C102.23 41.64 105 39.78 108.82 39.56C109.99 39.5 111.18 39.67 112.39 39.74L112.39 44.24L110.8 43.96C107.33 43.36 105.5 45.96 105.3 48.47C105.21 49.51 105.28 50.54 105.64 51.52C106.4 53.64 108.37 54.81 110.65 54.48C111.21 54.4 111.78 54.28 112.42 54.16L112.42 58.55L110.04 58.99L109.06 59Z" fill="#181818" fill-opacity="1.000000" fill-rule="nonzero"/>
	<path id="Vector" d="M8.55 58.99C7.92 58.89 7.27 58.82 6.65 58.68C2.81 57.86 0.01 54.67 -0.41 50.74C-0.56 49.32 -0.57 47.91 -0.24 46.52C0.73 42.5 4.16 39.68 8.34 39.56C9.52 39.53 10.69 39.68 11.89 39.75L11.89 44.24C11.35 44.15 10.83 44.06 10.31 43.97C6.83 43.35 4.97 45.96 4.78 48.57C4.71 49.67 4.8 50.75 5.23 51.77C6.05 53.73 7.96 54.8 10.13 54.49C10.7 54.41 11.26 54.29 11.87 54.18L11.87 58.57L9.52 59L8.55 58.99Z" fill="#181818" fill-opacity="1.000000" fill-rule="nonzero"/>
	<path id="Vector" d="M67.3 31.99L69.87 38.36C69.51 38.16 69.28 38.05 69.06 37.92C65.71 36.05 62.37 34.16 59.01 32.31C58.64 32.11 58.22 32 57.8 32C49.61 31.98 41.43 31.98 33.24 31.99C30.14 31.99 27.71 30.01 27.11 26.95C27.04 26.52 27.01 26.09 27.03 25.65C27.02 18.93 27.07 12.21 27.01 5.49C26.97 2.13 29.32 -0.22 31.79 -0.69C32.27 -0.79 32.75 -0.84 33.24 -0.85C50.96 -0.86 68.68 -0.86 86.4 -0.85C89.47 -0.85 91.88 1.07 92.53 4.07C92.65 4.69 92.71 5.32 92.69 5.96C92.71 12.37 92.71 18.78 92.7 25.2C92.7 26.78 92.44 28.29 91.42 29.59C90.19 31.15 88.58 31.98 86.62 31.98C80.45 32.01 74.28 31.99 68.11 31.99L67.3 31.99ZM43.98 16.76C44.03 16.82 44.06 16.84 44.07 16.87C44.1 16.95 44.13 17.04 44.15 17.12C45.16 20.39 46.4 23.55 48.47 26.29C49.09 27.11 49.76 27.92 50.56 28.55C51.98 29.67 53.58 28.97 53.91 27.19C53.94 26.9 53.95 26.61 53.94 26.32C53.94 25.03 53.85 23.74 53.97 22.46C54.18 20.05 54.45 17.65 54.82 15.26C55.31 12.08 55.91 8.92 57.36 5.99C57.79 5.15 57.68 4.29 57.07 3.56C56.42 2.78 55.57 2.47 54.55 2.71C53.8 2.88 53.36 3.4 53.02 4.05C51.44 7.17 50.75 10.54 50.19 13.96C49.95 15.39 49.79 16.83 49.57 18.37C49.48 18.14 49.42 18.02 49.38 17.88C48.77 15.75 48.15 13.61 47.57 11.47C47.31 10.52 47.2 9.51 46.88 8.58C46.34 7.02 44.59 6.7 43.46 7.91C43.19 8.22 42.95 8.56 42.76 8.93C41.63 11.07 40.52 13.22 39.4 15.37C38.61 16.87 37.83 18.37 37.02 19.91C36.97 19.81 36.93 19.71 36.9 19.61C36.07 15.14 35.23 10.67 34.4 6.2C34.25 5.38 34.18 4.5 33.34 4.06C32.4 3.56 31.44 3.64 30.58 4.24C29.78 4.8 29.56 5.66 29.71 6.6C30.15 9.29 30.54 11.99 31.09 14.66C31.84 18.26 32.69 21.85 33.58 25.42C33.82 26.4 34.27 27.36 34.77 28.25C35.31 29.18 36.18 29.33 37.03 28.67C37.6 28.23 38.18 27.69 38.54 27.08C39.62 25.25 40.62 23.36 41.61 21.48C42.43 19.93 43.19 18.35 43.98 16.76ZM89.46 14.29C89.43 12.96 89.26 11.62 88.8 10.33C87.74 7.36 85.36 5.59 82.4 5.57C79.91 5.55 78.03 6.71 76.59 8.67C74.24 11.89 73.42 15.52 73.96 19.44C74.22 21.34 74.95 23.08 76.39 24.41C79.17 26.96 83.61 26.63 86.13 23.67C88.4 20.99 89.38 17.82 89.46 14.29ZM64.05 26.12C64.39 26.1 64.73 26.1 65.07 26.05C67.2 25.73 68.75 24.52 69.95 22.79C71.28 20.89 72.13 18.69 72.42 16.39C72.7 14.24 72.61 12.14 71.84 10.1C69.94 4.99 63.67 4.14 60.51 7.77C57.02 11.78 56.03 16.43 57.66 21.51C58.62 24.49 61.06 26.1 64.05 26.12Z" fill="#181818" fill-opacity="1.000000" fill-rule="nonzero"/>
	<path id="Vector" d="M35.35 46.12C34.94 50.22 34.53 54.32 34.12 58.45L29.44 58.45C30.21 52.32 30.99 46.2 31.77 40.06L38.05 40.06C38.74 43.37 39.42 46.7 40.13 50.11C40.44 48.54 40.72 47.04 41.05 45.56C41.42 43.84 41.83 42.14 42.24 40.43C42.27 40.28 42.48 40.04 42.61 40.04C44.62 40.02 46.64 40.03 48.72 40.03C49.55 46.17 50.37 52.3 51.2 58.48L47.76 58.48C46.29 58.48 46.29 58.48 46.14 57.01C45.77 53.39 45.4 49.77 44.95 46.13C44.91 46.26 44.86 46.39 44.82 46.53C43.89 50.36 42.97 54.19 42.05 58.02C41.96 58.38 41.83 58.5 41.48 58.49C40.68 58.47 39.89 58.46 39.1 58.49C38.71 58.51 38.54 58.39 38.45 57.99C37.5 54.15 36.52 50.31 35.55 46.47C35.52 46.35 35.48 46.24 35.45 46.12L35.35 46.12Z" fill="#181818" fill-opacity="1.000000" fill-rule="nonzero"/>
	<path id="Vector" d="M57.77 46.09C57.36 50.19 56.95 54.29 56.53 58.44L51.86 58.44C52.01 57.19 52.16 55.96 52.32 54.74C52.84 50.57 53.37 46.4 53.9 42.24C53.97 41.64 54.06 41.05 54.12 40.46C54.14 40.15 54.24 40.02 54.58 40.02C56.39 40.04 58.21 40.05 60.03 40.02C60.5 40.01 60.5 40.31 60.56 40.59C61.18 43.62 61.8 46.65 62.42 49.68C62.43 49.73 62.45 49.78 62.47 49.82C62.5 49.86 62.54 49.89 62.59 49.92C62.78 48.92 62.95 47.92 63.17 46.92C63.64 44.77 64.14 42.62 64.62 40.47C64.7 40.11 64.85 40.02 65.2 40.02C67.02 40.04 68.83 40.04 70.65 40.02C71.01 40.02 71.13 40.12 71.18 40.5C71.95 46.29 72.72 52.08 73.51 57.88C73.54 58.05 73.54 58.23 73.55 58.45L68.69 58.45C68.25 54.34 67.82 50.23 67.4 46.11L67.31 46.11C66.32 50.22 65.33 54.33 64.34 58.49C63.28 58.49 62.26 58.5 61.24 58.47C61.11 58.47 60.93 58.21 60.89 58.04C60.27 55.66 59.68 53.27 59.08 50.89L57.87 46.11L57.77 46.09Z" fill="#181818" fill-opacity="1.000000" fill-rule="nonzero"/>
	<path id="Vector" d="M91.44 58.45L86.51 58.45L86.51 40.09C86.56 40.07 86.61 40.05 86.67 40.04C89.2 40.08 91.74 40.09 94.27 40.2C95.42 40.26 96.5 40.71 97.48 41.36C100.66 43.48 100.51 48.06 97.2 49.96C97.09 50.02 96.98 50.08 96.8 50.18C98.09 52.92 99.39 55.65 100.72 58.46C100.48 58.47 100.31 58.49 100.14 58.49C98.78 58.49 97.41 58.47 96.04 58.5C95.64 58.5 95.44 58.38 95.27 58.01C94.12 55.56 92.94 53.11 91.78 50.67C91.7 50.5 91.59 50.34 91.44 50.23L91.44 58.45ZM91.43 48.06C92.18 47.9 92.88 47.8 93.55 47.59C94.22 47.39 94.63 46.88 94.67 46.15C94.71 45.39 94.58 44.66 93.9 44.18C93.17 43.66 92.31 43.63 91.43 43.6L91.43 48.06Z" fill="#181818" fill-opacity="1.000000" fill-rule="nonzero"/>
	<path id="Vector" d="M84.35 47.35C84.35 48.57 84.35 49.69 84.35 50.81C84.35 50.92 84.33 51.03 84.33 51.18L80.01 51.18L80.01 54.57L85 54.57C85.03 54.72 85.05 54.87 85.06 55.03C85.06 56.04 85.06 57.06 85.06 58.07C85.06 58.32 85.06 58.53 84.71 58.53C81.52 58.52 78.34 58.52 75.16 58.51C75.14 58.51 75.13 58.49 75.06 58.45L75.06 40.11L84.97 40.11L84.97 43.99L80 43.99L80 47.35L84.35 47.35Z" fill="#181818" fill-opacity="1.000000" fill-rule="nonzero"/>
	<path id="Vector" d="M84.76 14.26C84.72 16.49 84.33 18.24 83.18 19.72C82.77 20.24 82.26 20.68 81.69 21.02C80.78 21.56 79.92 21.31 79.38 20.4C78.6 19.11 78.35 17.7 78.5 16.19C78.67 14.47 79.33 12.84 80.41 11.5C80.67 11.18 80.97 10.89 81.31 10.66C82.28 9.99 83.29 10.22 83.9 11.23C84.53 12.27 84.8 13.42 84.76 14.26Z" fill="#181818" fill-opacity="1.000000" fill-rule="nonzero"/>
	<path id="Vector" d="M67.9 14.65C67.83 16.57 67.43 18.38 66.18 19.89C65.8 20.33 65.36 20.71 64.87 21C63.95 21.55 63.07 21.31 62.5 20.4C61.68 19.09 61.48 17.63 61.63 16.13C61.78 14.48 62.41 12.91 63.45 11.62C63.74 11.24 64.1 10.9 64.49 10.63C65.43 10 66.41 10.23 67 11.19C67.64 12.23 67.95 13.43 67.9 14.65Z" fill="#181818" fill-opacity="1.000000" fill-rule="nonzero"/>
</svg>
