<?xml version="1.0" encoding="utf-8"?>
<!-- Generator: Adobe Illustrator 16.0.0, SVG Export Plug-In . SVG Version: 6.00 Build 0)  -->
<!DOCTYPE svg PUBLIC "-//W3C//DTD SVG 1.1//EN" "http://www.w3.org/Graphics/SVG/1.1/DTD/svg11.dtd">
<svg version="1.1" id="Layer_1" xmlns="http://www.w3.org/2000/svg" xmlns:xlink="http://www.w3.org/1999/xlink" x="0px" y="0px"
	 width="66px" height="66px" viewBox="0 0 66 66" enable-background="new 0 0 66 66" xml:space="preserve">
<g>
	<path fill="#E73B36" d="M2,40v8.223C2,51.586,4.672,54,7.968,54h50.063C61.327,54,64,51.586,64,48.223V40H2z"/>
	<path fill="#F0F7F6" d="M58.031,12H7.968C4.672,12,2,14.414,2,17.777V26h62v-8.223C64,14.414,61.327,12,58.031,12z"/>
	<rect x="2" y="26" fill="#3757A6" width="62" height="14"/>
	<g>
		<g>
			<path fill="#D31C1C" d="M57.75,54c3.297,0,6.25-2.414,6.25-5.777V40H41.392L57.75,54z"/>
			<path fill="#DFF2EF" d="M58.031,12H7.968l16.641,14H64v-8.223C64,14.414,61.327,12,58.031,12z"/>
			<polygon fill="#20448E" points="41.533,40 64,40 64,26 24.466,26 			"/>
			<path fill="#CAEAE4" d="M58.031,12H7.968l46.261,14H64v-8.223C64,14.414,61.327,12,58.031,12z"/>
			<polygon fill="#103577" points="64,28.848 64,26 53.833,26 			"/>
			<path fill="#C41010" d="M64,48.067C64,51.734,61.327,54,58.031,54H7.968C4.672,54,2,51.352,2,47.989"/>
		</g>
	</g>
</g>
</svg>
