<svg width="79.530518" height="79.530518" viewBox="0 0 79.5305 79.5305" fill="none" xmlns="http://www.w3.org/2000/svg" xmlns:xlink="http://www.w3.org/1999/xlink">
	<desc>
			Created with Pixso.
	</desc>
	<defs/>
	<path id="Star 1" d="M28.6323 25.6782C28.126 27.0469 27.0469 28.126 25.6782 28.6323L8.26489 35.0759C3.91162 36.6868 3.91162 42.8438 8.26489 44.4546L25.6782 50.8982C27.0469 51.4045 28.126 52.4836 28.6323 53.8523L35.0759 71.2656C36.6868 75.6189 42.8438 75.6189 44.4546 71.2656L50.8982 53.8523C51.4045 52.4836 52.4836 51.4045 53.8523 50.8982L71.2656 44.4546C75.6189 42.8438 75.6189 36.6868 71.2656 35.0759L53.8521 28.6323C52.4836 28.126 51.4045 27.0469 50.8982 25.6782L44.4546 8.26489C42.8438 3.91162 36.6868 3.91162 35.0759 8.26489L28.6323 25.6782Z" stroke="#FFAA4C" stroke-opacity="1.000000" stroke-width="10.000000"/>
</svg>
