<svg width="100.000000" height="100.000000" viewBox="0 0 100 100" fill="none" xmlns="http://www.w3.org/2000/svg" xmlns:xlink="http://www.w3.org/1999/xlink">
	<desc>
			Created with Pixso.
	</desc>
	<defs/>
	<path id="Star 1" d="M33.0402 36.0859C32.5337 37.4546 31.4547 38.5337 30.0861 39.04L12.6725 45.4836C8.31946 47.0945 8.31946 53.2515 12.6725 54.8623L30.0861 61.3059C31.4547 61.8123 32.5337 62.8914 33.0402 64.26L39.4838 81.6733C41.0945 86.0266 47.2515 86.0266 48.8622 81.6733L55.3058 64.26C55.8123 62.8914 56.8914 61.8123 58.2599 61.3059L75.6735 54.8623C80.0265 53.2515 80.0265 47.0945 75.6735 45.4836L58.2599 39.04C56.8912 38.5337 55.8123 37.4546 55.3058 36.0859L48.8622 18.6726C47.2515 14.3193 41.0945 14.3193 39.4838 18.6726L33.0402 36.0859Z" stroke="#FFAA4C" stroke-opacity="1.000000" stroke-width="10.000000"/>
</svg>
