<svg width="129.970093" height="220.765076" viewBox="0 0 129.97 220.765" fill="none" xmlns="http://www.w3.org/2000/svg" xmlns:xlink="http://www.w3.org/1999/xlink">
	<desc>
			Created with Pixso.
	</desc>
	<defs/>
	<g opacity="0.700000">
		<path id="Vector 276" d="M74.3151 55.655L74.3151 102.034" stroke="#A64CED" stroke-opacity="1.000000" stroke-width="111.309944" stroke-linecap="round"/>
	</g>
	<path id="Vector 280" d="M91.4753 47.3068C90.084 52.8723 80.8082 59.8292 73.8513 59.8292" stroke="#000000" stroke-opacity="1.000000" stroke-width="1.855166" stroke-linejoin="round" stroke-linecap="round"/>
	<path id="Vector 278" d="M107.456 78.3809C105.755 84.874 100.499 95.9123 93.0782 88.1205C83.8024 78.3809 74.0627 64.0034 64.3231 63.0758C54.5835 62.1483 49.0182 65.3948 50.4094 69.1051C51.3396 71.5856 55.5863 71.855 59.6852 71.7149C61.7175 71.6454 63.7134 71.4753 65.2506 71.4241M69.8887 77.9172C68.0334 78.5661 65.7145 78.5903 64.3231 78.5661C53.6559 78.3809 52.7284 72.8154 59.6852 71.7149M64.3231 78.5661C57.8301 79.7723 59.6852 84.4102 65.2506 85.3813C66.2675 85.5828 67.5033 85.595 68.9611 85.3378M65.2506 85.3813C61.8278 87.6276 62.7712 91.1508 67.5697 91.5787C68.6227 91.6727 69.8612 91.6175 71.28 91.3671M67.5697 91.5787C78.2369 114.557 103.282 123.832 121.37 106.208" stroke="#000000" stroke-opacity="1.000000" stroke-width="1.855166"/>
	<circle id="Ellipse 1020" cx="59.937622" cy="44.060364" r="2.318957" fill="#000000" fill-opacity="1.000000"/>
	<circle id="Ellipse 1021" cx="79.416748" cy="40.349915" r="2.318957" fill="#000000" fill-opacity="1.000000"/>
	<path id="Vector 281" d="M72.4598 155.834L72.4598 219.838L33.5013 219.838L37.7544 216.116C39.7673 214.355 40.922 211.81 40.922 209.135L40.922 144.703" stroke="#000000" stroke-opacity="1.000000" stroke-width="1.855166" stroke-linejoin="round" stroke-linecap="round"/>
	<path id="Vector 282" d="M76.1703 155.834L76.1703 219.838L115.129 219.838L110.876 216.116C108.863 214.355 107.708 211.81 107.708 209.135L107.708 144.703" stroke="#000000" stroke-opacity="1.000000" stroke-width="1.855166" stroke-linejoin="round" stroke-linecap="round"/>
	<path id="Vector" d="M29.1964 47.5867C28.1624 53.173 27.7338 58.8403 26.9445 64.4653" stroke="#FFFFFF" stroke-opacity="1.000000" stroke-width="1.855166" stroke-linejoin="round" stroke-linecap="round"/>
	<path id="Vector" d="M43.8417 41.7412C39.1431 49.5869 35.2252 58.0742 31.7656 66.5358" stroke="#FFFFFF" stroke-opacity="1.000000" stroke-width="1.855166" stroke-linejoin="round" stroke-linecap="round"/>
	<path id="Vector" d="M52.2717 55.3555C46.8759 58.5432 40.7113 65.2986 36.0695 69.8121" stroke="#FFFFFF" stroke-opacity="1.000000" stroke-width="1.855166" stroke-linejoin="round" stroke-linecap="round"/>
	<g opacity="0.700000">
		<rect id="Rectangle 147" x="0.108398" y="73.813660" rx="9.275829" width="34.320564" height="64.003220" transform="rotate(-15 0.108398 73.813660)" fill="#2FDBBC" fill-opacity="1.000000"/>
	</g>
	<g opacity="0.700000">
		<rect id="Rectangle 148" x="4.652588" y="76.437195" rx="4.831678" width="9.663356" height="14.325620" transform="rotate(-15 4.652588 76.437195)" fill="#2FDBBC" fill-opacity="1.000000"/>
	</g>
	<path id="Vector 279" d="M28.5424 95.3223C27.5243 90.7741 9.3844 90.3857 3.81885 99.4676C-1.74658 108.549 1.17834 122.568 10.4543 125.436C19.7305 128.304 30.8613 124.958 31.3251 120.656C31.6962 117.215 23.7618 117.631 19.5878 117.631C24.2257 117.153 32.1101 117.31 31.3251 113.486C30.54 109.662 21.5854 110.778 17.4114 111.096C22.3584 110.299 32.1101 109.983 31.3251 105.36C30.54 100.737 21.1337 102.495 16.3412 103.292C21.5975 101.857 29.7911 100.902 28.5424 95.3223Z" fill="#BE7FEF" fill-opacity="1.000000" fill-rule="nonzero"/>
	<path id="Vector 279" d="M28.5424 95.3223C29.7911 100.902 21.5975 101.857 16.3412 103.292C21.1337 102.495 30.54 100.737 31.3251 105.36C32.1101 109.983 22.3584 110.299 17.4114 111.096C21.5854 110.778 30.54 109.662 31.3251 113.486C32.1101 117.31 24.2257 117.153 19.5878 117.631C23.7618 117.631 31.6962 117.215 31.3251 120.656C30.8613 124.958 19.7305 128.304 10.4543 125.436C1.17834 122.568 -1.74658 108.549 3.81885 99.4676C9.3844 90.3857 27.5243 90.7741 28.5424 95.3223Z" stroke="#000000" stroke-opacity="1.000000" stroke-width="1.855166" stroke-linejoin="round"/>
</svg>
