<svg width="243.696289" height="250.193848" viewBox="0 0 243.696 250.194" fill="none" xmlns="http://www.w3.org/2000/svg" xmlns:xlink="http://www.w3.org/1999/xlink">
	<desc>
			Created with Pixso.
	</desc>
	<defs/>
	<g opacity="0.700000">
		<path id="Vector 283" d="M137.231 79.8491L163.847 79.8491" stroke="#2FDBBC" stroke-opacity="1.000000" stroke-width="159.698166" stroke-linecap="round"/>
	</g>
	<path id="Vector 308" d="M169.382 45.1855C168.016 49.6882 158.04 55.0209 151.908 52.0178" stroke="#000000" stroke-opacity="1.000000" stroke-width="2.661636" stroke-linejoin="round" stroke-linecap="round"/>
	<circle id="Ellipse 1022" cx="133.903809" cy="40.589661" r="3.327045" fill="#000000" fill-opacity="1.000000"/>
	<circle id="Ellipse 1023" cx="161.850952" cy="35.266418" r="3.327045" fill="#000000" fill-opacity="1.000000"/>
	<path id="Vector 304" d="M150.539 157.037L135.9 248.863L89.3214 248.863L96.0659 242.962C98.5754 240.766 100.169 237.708 100.532 234.393L109.284 154.375" stroke="#000000" stroke-opacity="1.000000" stroke-width="2.661636" stroke-linejoin="round" stroke-linecap="round"/>
	<path id="Vector 305" d="M150.539 157.037L150.539 248.863L197.118 248.863L191.398 243.859C188.291 241.14 186.622 237.133 186.88 233.013L191.794 154.375" stroke="#000000" stroke-opacity="1.000000" stroke-width="2.661636" stroke-linejoin="round" stroke-linecap="round"/>
	<path id="Vector 306" d="M28.7434 37.9387C49.1212 37.9745 48.5421 51.7454 26.2971 46.448C32.8083 48.2654 42.713 50.3467 39.6777 55.4496C36.6423 60.5524 24.9464 55.1141 24.9464 55.1141C33.2042 59.6176 35.3608 63.0269 32.5115 65.4986C31.2659 66.5791 29.1404 67.0025 26.6718 66.8064C18.6533 66.1693 7.01489 58.9962 10.1499 46.5744C14.25 30.3282 32.6952 30.3091 36.8018 32.2255C36.2201 17.4773 38.535 8.04822 45.9766 9.16016C55.2296 10.5428 47.9774 38.132 50.0648 47.7329C52.1522 57.3338 58.6698 77.3137 85.3044 64.5126M80.5907 97.6254C57.1775 102.692 35.3185 94.9144 26.6718 66.8064" stroke="#000000" stroke-opacity="1.000000" stroke-width="2.661636" stroke-linejoin="round"/>
</svg>
