<svg width="191.218994" height="160.385986" viewBox="0 0 191.219 160.386" fill="none" xmlns="http://www.w3.org/2000/svg" xmlns:xlink="http://www.w3.org/1999/xlink">
	<desc>
			Created with Pixso.
	</desc>
	<defs/>
	<g opacity="0.700000">
		<path id="Vector 283" d="M97.6189 56.9033L116.552 56.9033" stroke="#A64CED" stroke-opacity="1.000000" stroke-width="113.806808" stroke-linecap="round"/>
	</g>
	<path id="Vector 308" d="M120.49 32.2009C119.518 35.4097 112.422 39.21 108.06 37.0698" stroke="#000000" stroke-opacity="1.000000" stroke-width="1.542088" stroke-linejoin="round" stroke-linecap="round"/>
	<ellipse id="Ellipse 1022" cx="95.252197" cy="28.926025" rx="2.366690" ry="2.370975" fill="#000000" fill-opacity="1.000000"/>
	<ellipse id="Ellipse 1023" cx="115.132324" cy="25.132324" rx="2.366690" ry="2.370975" fill="#000000" fill-opacity="1.000000"/>
	<path id="Vector 304" d="M107.175 112.098L97.199 159.615L63.9966 159.615L68.8296 155.536C70.605 154.037 71.7686 151.939 72.0996 149.639L77.7672 110.268" stroke="#000000" stroke-opacity="1.000000" stroke-width="1.542088" stroke-linejoin="round" stroke-linecap="round"/>
	<path id="Vector 305" d="M107.175 112.098L107.175 159.615L140.33 159.615L136.509 156.385C134.153 154.394 132.913 151.381 133.184 148.309L136.541 110.268" stroke="#000000" stroke-opacity="1.000000" stroke-width="1.542088" stroke-linejoin="round" stroke-linecap="round"/>
	<path id="Vector 306" d="M20.4465 27.0366C34.9424 27.062 34.5304 36.8757 18.7064 33.1006C23.3381 34.3958 30.3838 35.8789 28.2247 39.5154C26.0656 43.1519 17.7456 39.2764 17.7456 39.2764C23.6199 42.4858 25.1539 44.9153 23.1271 46.6768C22.241 47.4468 20.729 47.7485 18.9729 47.6086C13.269 47.1548 4.99011 42.043 7.22009 33.1907C10.1367 21.613 23.2577 21.5994 26.1788 22.9651C25.7651 12.4551 27.4119 5.7356 32.7054 6.52783C39.2876 7.51318 34.1287 27.1743 35.6135 34.0164C37.0985 40.8582 41.7347 55.0967 60.6813 45.9741M57.3281 69.5715C40.6731 73.1824 25.1238 67.6394 18.9729 47.6086" stroke="#000000" stroke-opacity="1.000000" stroke-width="1.542088" stroke-linejoin="round"/>
	<path id="Vector 307" d="M147.796 70.6953C152.28 73.3428 155.05 73.9854 160.541 73.3196C155.752 76.2473 153.601 78.0239 151.09 81.5208M156.884 41.0845C166.871 43.9641 186.749 53.301 186.364 67.6113C186.096 77.5522 178.874 84.4526 172.025 88.4824C169.014 90.2539 166.076 91.4707 163.832 92.1472C166.64 92.8899 170.756 94.6248 172.418 97.158C173.441 98.7166 173.536 100.577 171.825 102.695C167.335 108.254 157.783 103.036 153.568 99.7319M172.025 88.4824C177.067 90.3401 176.007 95.9404 172.418 97.158" stroke="#000000" stroke-opacity="1.000000" stroke-width="1.542088" stroke-linejoin="round"/>
</svg>
